<svg width="185" height="54" viewBox="0 0 185 54" fill="none" xmlns="http://www.w3.org/2000/svg">
<g filter="url(#filter0_d_112_5447)">
<path d="M106.097 41.0714C105.795 35.2544 90.1637 41.1541 89.4053 46.859C94.2823 49.8677 108.848 47.4865 106.372 42.1269C106.349 41.7277 106.238 41.353 106.097 41.0714Z" fill="#003C66"/>
<path d="M106.292 42.1693C107.747 45.6875 95.1118 48.0841 89.7845 46.8298C95.3293 47.8554 106.728 45.6984 106.292 42.1693Z" fill="black"/>
<path d="M105.96 41.0261C105.404 37.3853 93.434 42.7861 89.2959 46.9047C93.7272 42.8426 104.871 37.9622 105.96 41.0261Z" fill="black"/>
<path d="M106.04 41.5784C105.879 41.2771 98.8888 44.2579 89.7804 46.5596C99.9227 43.9967 106.315 42.091 106.04 41.5784Z" fill="black"/>
</g>
<g filter="url(#filter1_d_112_5447)">
<path d="M138.479 30.9815C141.165 37.6902 158.158 24.4585 156.828 17.454C149.598 15.8882 132.525 24.5584 137.719 29.853C137.906 30.3128 138.193 30.7077 138.479 30.9815Z" fill="#003C66"/>
<path d="M137.801 29.7709C134.601 26.2269 149.281 18.3168 156.37 17.6411C149.103 18.6731 135.858 25.8029 137.801 29.7709Z" fill="black"/>
<path d="M138.666 30.9796C140.802 35.0301 153.464 23.8611 156.945 17.3561C153.078 23.913 141.232 34.1379 138.666 30.9796Z" fill="black"/>
<path d="M138.347 30.3637C138.667 30.6523 146.13 24.3331 156.483 17.9571C144.954 25.0569 137.803 29.8727 138.347 30.3637Z" fill="black"/>
<path d="M143.825 27.4896C146.154 18.9523 120.597 19.9321 116.779 27.797C122.445 34.4873 144.776 38.0698 143.723 29.1446C143.88 28.5578 143.896 27.9636 143.825 27.4896Z" fill="#003C66"/>
<path d="M143.586 29.1674C144.03 34.9445 124.5 32.3142 117.344 27.9379C124.926 32.089 142.541 34.4691 143.586 29.1674Z" fill="black"/>
<path d="M143.648 27.3583C144.57 21.8376 124.58 23.8621 116.597 27.8101C124.979 24.0848 143.52 22.4134 143.648 27.3583Z" fill="black"/>
<path d="M143.501 28.1936C143.41 27.6811 131.818 28.6137 117.467 27.5457C133.447 28.7349 143.657 29.0655 143.501 28.1936Z" fill="black"/>
<path d="M155.438 29.7479C153.329 24.2536 170.955 22.6691 174.048 27.5842C170.551 32.546 155.414 36.8932 155.607 30.8437C155.464 30.4658 155.418 30.0706 155.438 29.7479Z" fill="#003C66"/>
<path d="M155.703 30.1895C155.735 29.8394 163.758 29.4466 173.56 27.4767C162.646 29.6702 155.647 30.7852 155.703 30.1895Z" fill="black"/>
<path d="M135.613 29.7224C135.132 36.7095 160.305 34.5361 162.409 28.0086C155.346 22.9394 132.398 21.2715 135.359 28.3869C135.329 28.8669 135.441 29.3453 135.613 29.7224Z" fill="#003C66" stroke="black" stroke-width="0.069762"/>
<path d="M135.49 28.3613C133.809 23.7428 153.77 24.7974 161.817 27.9263C153.396 25.0015 135.389 24.044 135.49 28.3613Z" fill="black"/>
<path d="M135.817 29.8184C136.086 34.305 155.506 31.5941 162.586 27.9885C155.061 31.4368 137.005 33.7854 135.817 29.8184Z" fill="black"/>
<path d="M135.783 29.1392C135.984 29.5461 147.297 28.1681 161.779 28.248C145.653 28.159 135.441 28.447 135.783 29.1392Z" fill="black"/>
<path d="M138.831 30.3381C139.979 21.1835 116.054 31.4057 117.426 35.3158C118.413 38.9535 144.845 39.3223 139.14 31.4652C139.147 30.9525 138.993 30.7136 138.831 30.3381Z" fill="#003C66"/>
<path d="M139.04 31.3388C140.526 35.5587 124.965 37.0091 118.587 35.002C125.248 36.7673 139.285 35.4648 139.04 31.3388Z" fill="black"/>
<path d="M138.729 29.9822C138.346 25.7145 123.352 30.7078 117.986 35.0372C123.704 30.8038 137.652 26.3259 138.729 29.9822Z" fill="black"/>
<path d="M138.747 30.7272C138.559 30.3241 128.909 33.3555 116.482 35.283C130.32 33.1367 139.068 31.4129 138.747 30.7272Z" fill="black"/>
<path d="M148.94 35.5645C143.775 43.2099 167.427 42.9312 168.162 38.9866C169.075 35.422 148.368 25.4567 149.22 34.4587C148.976 34.9078 148.986 35.1743 148.94 35.5645Z" fill="#003C66"/>
<path d="M149.24 34.6069C150.029 30.3473 162.995 34.7452 167.099 38.8395C162.659 34.855 150.965 30.8825 149.24 34.6069Z" fill="black"/>
<path d="M148.855 35.9152C147.172 39.8143 161.338 40.8844 167.59 39.0275C161.105 40.6715 148.005 39.529 148.855 35.9152Z" fill="black"/>
<path d="M149.187 35.2521C149.148 35.676 158.18 36.5251 168.892 39.3596C156.964 36.2034 149.252 34.5311 149.187 35.2521Z" fill="black"/>
<path d="M181.162 12.3284C179.409 9.7191 162.548 7.83089 164.627 13.3261C165.1 19.4217 181.129 14.5117 181.162 12.3284Z" fill="#003C66"/>
<path d="M164.626 12.7523C165.179 10.4832 175.284 9.76971 180.854 12.3209C175.128 9.93393 165.928 10.8579 164.626 12.7523Z" fill="black"/>
<path d="M164.655 13.1717C164.544 12.7822 172.218 13.3522 180.986 12.3736C171.223 13.4633 164.843 13.8343 164.655 13.1717Z" fill="black"/>
<path d="M4.05385 38.0539C3.92082 34.3971 26.2492 30.0547 23.126 37.8211C25.7164 45.7073 3.95009 41.4033 4.05385 38.0539Z" fill="#003C66"/>
<path d="M22.0455 38.5319C22.194 42.4797 9.58313 40.9046 5.04478 37.9924C9.86466 40.7456 21.2393 42.1716 22.0455 38.5319Z" fill="black"/>
<path d="M22.1295 37.2931C22.8619 33.505 9.83919 35.1201 4.56305 37.9134C10.0932 35.2679 22.1667 33.911 22.1295 37.2931Z" fill="black"/>
<path d="M21.9635 37.9456C21.9126 37.5601 13.5757 38.4408 3.31848 37.8532C14.74 38.5075 22.0501 38.6016 21.9635 37.9456Z" fill="black"/>
</g>
<g filter="url(#filter2_d_112_5447)">
<path d="M71.2973 33.8136C72.0494 27.3735 52.9814 30.5611 51.0331 36.656C56.0665 40.9775 73.2455 41.4233 71.4136 35.0283C71.4632 34.5859 71.4058 34.1519 71.2973 33.8136Z" fill="#003C66"/>
<path d="M71.3135 35.0581C72.3213 39.2204 57.356 39.1965 51.474 36.7036C57.649 38.9913 71.1483 39.0185 71.3135 35.0581Z" fill="black"/>
<path d="M71.149 33.7352C71.1973 29.6272 56.4293 33.0363 50.8987 36.683C56.7553 33.1597 70.4766 30.1479 71.149 33.7352Z" fill="black"/>
<path d="M71.1367 34.3574C71.008 33.9932 62.4166 35.7943 51.5205 36.4063C63.6535 35.7248 71.3555 34.977 71.1367 34.3574Z" fill="black"/>
<path d="M77.0034 33.644C74.9401 25.6282 61.0443 41.6452 63.2578 44.4877C65.1105 47.2224 84.1377 39.2819 77.5802 34.4902C77.4236 34.0592 77.2381 33.9074 77.0034 33.644Z" fill="#003C66"/>
<path d="M77.4682 34.4161C79.8616 37.482 69.1854 43.5515 63.9897 43.8631C69.3117 43.261 78.9443 37.7907 77.4682 34.4161Z" fill="black"/>
<path d="M76.8181 33.3782C75.1992 29.928 66.0452 38.7841 63.5709 44.0799C66.3273 38.7545 74.8951 30.6561 76.8181 33.3782Z" fill="black"/>
<path d="M77.0664 33.9959C76.8044 33.7176 70.8558 39.2647 62.5724 44.7551C71.7961 38.6415 77.512 34.4693 77.0664 33.9959Z" fill="black"/>
</g>
<defs>
<filter id="filter0_d_112_5447" x="86.5055" y="37.281" width="22.9377" height="15.0813" filterUnits="userSpaceOnUse" color-interpolation-filters="sRGB">
<feFlood flood-opacity="0" result="BackgroundImageFix"/>
<feColorMatrix in="SourceAlpha" type="matrix" values="0 0 0 0 0 0 0 0 0 0 0 0 0 0 0 0 0 0 127 0" result="hardAlpha"/>
<feOffset dy="1.39524"/>
<feGaussianBlur stdDeviation="1.39524"/>
<feComposite in2="hardAlpha" operator="out"/>
<feColorMatrix type="matrix" values="0 0 0 0 0 0 0 0 0 0 0 0 0 0 0 0 0 0 0.25 0"/>
<feBlend mode="normal" in2="BackgroundImageFix" result="effect1_dropShadow_112_5447"/>
<feBlend mode="normal" in="SourceGraphic" in2="effect1_dropShadow_112_5447" result="shape"/>
</filter>
<filter id="filter1_d_112_5447" x="0.528001" y="8.38381" width="183.425" height="38.0825" filterUnits="userSpaceOnUse" color-interpolation-filters="sRGB">
<feFlood flood-opacity="0" result="BackgroundImageFix"/>
<feColorMatrix in="SourceAlpha" type="matrix" values="0 0 0 0 0 0 0 0 0 0 0 0 0 0 0 0 0 0 127 0" result="hardAlpha"/>
<feOffset dy="1.39524"/>
<feGaussianBlur stdDeviation="1.39524"/>
<feComposite in2="hardAlpha" operator="out"/>
<feColorMatrix type="matrix" values="0 0 0 0 0 0 0 0 0 0 0 0 0 0 0 0 0 0 0.25 0"/>
<feBlend mode="normal" in2="BackgroundImageFix" result="effect1_dropShadow_112_5447"/>
<feBlend mode="normal" in="SourceGraphic" in2="effect1_dropShadow_112_5447" result="shape"/>
</filter>
<filter id="filter2_d_112_5447" x="48.1082" y="28.8777" width="33.6316" height="20.3545" filterUnits="userSpaceOnUse" color-interpolation-filters="sRGB">
<feFlood flood-opacity="0" result="BackgroundImageFix"/>
<feColorMatrix in="SourceAlpha" type="matrix" values="0 0 0 0 0 0 0 0 0 0 0 0 0 0 0 0 0 0 127 0" result="hardAlpha"/>
<feOffset dy="1.39524"/>
<feGaussianBlur stdDeviation="1.39524"/>
<feComposite in2="hardAlpha" operator="out"/>
<feColorMatrix type="matrix" values="0 0 0 0 0 0 0 0 0 0 0 0 0 0 0 0 0 0 0.25 0"/>
<feBlend mode="normal" in2="BackgroundImageFix" result="effect1_dropShadow_112_5447"/>
<feBlend mode="normal" in="SourceGraphic" in2="effect1_dropShadow_112_5447" result="shape"/>
</filter>
</defs>
</svg>
