<svg width="47" height="77" viewBox="0 0 47 77" fill="none" xmlns="http://www.w3.org/2000/svg">
<path d="M20.6561 6.71157C20.6561 2.5626 23.5 0 23.5 0C23.5 0 26.3439 2.5626 26.3439 6.71157C26.3439 14.0333 21.8913 34.6561 31.5387 48.5674C37.6001 49.1775 39.7026 41.0016 32.4045 40.2694C34.3842 15.9857 38.7132 11.1046 47 5.73534V61.7464H33.8895C32.8562 66.4917 31.5387 69.8003 27.829 72.9731C24.1193 76.1458 24.7594 75.5523 23.5 77C22.2405 75.5523 22.8807 76.1458 19.171 72.9731C15.4613 69.8003 14.1438 66.4917 13.1105 61.7464H0V5.73534C8.28683 11.1046 12.6158 15.9857 14.5955 40.2694C7.29736 41.0016 9.39993 49.1775 15.4613 48.5674C25.1087 34.6561 20.6561 14.0333 20.6561 6.71157Z" fill="url(#paint0_linear_187_4533)"/>
<path d="M17.4402 52.9993C20.1334 53.9443 21.1208 54.9094 21.5219 57.7585H16.6981C16.494 55.6353 16.7098 54.6214 17.4402 52.9993Z" fill="#F3F0F0"/>
<path d="M21.5219 61.7854H17.0693C17.9281 65.3567 18.9217 67.114 21.5219 69.8393V61.7854Z" fill="#F3F0F0"/>
<path d="M12.7403 57.8805C12.7694 55.6859 12.8303 54.4558 13.3587 52.2672C9.35866 51.4244 7.66386 50.2684 6.18493 46.2878H3.95862V57.8805H12.7403Z" fill="#F3F0F0"/>
<path d="M6.18493 42.2608H3.95862V13.9502C7.54659 17.5943 8.92202 22.5928 10.1428 37.3797C8.00786 38.6783 7.16021 39.7386 6.18493 42.2608Z" fill="#F3F0F0"/>
<path d="M29.5612 52.9993C26.868 53.9443 25.8807 54.9094 25.4796 57.7585H30.3033C30.5075 55.6353 30.2917 54.6214 29.5612 52.9993Z" fill="#F3F0F0"/>
<path d="M25.4796 61.7854H29.9322C29.0733 65.3567 28.0798 67.114 25.4796 69.8393V61.7854Z" fill="#F3F0F0"/>
<path d="M34.2611 57.8805C34.2321 55.6859 34.1712 54.4558 33.6427 52.2672C37.6428 51.4244 39.3376 50.2684 40.8165 46.2878H43.0428V57.8805H34.2611Z" fill="#F3F0F0"/>
<path d="M40.8165 42.2608H43.0428V13.9502C39.4549 17.5943 38.0794 22.5928 36.8586 37.3797C38.9936 38.6783 39.8412 39.7386 40.8165 42.2608Z" fill="#F3F0F0"/>
<path d="M17.4402 52.9993C20.1334 53.9443 21.1208 54.9094 21.5219 57.7585H16.6981C16.494 55.6353 16.7098 54.6214 17.4402 52.9993Z" fill="#F3F0F0"/>
<path d="M21.5219 61.7854H17.0693C17.9281 65.3567 18.9217 67.114 21.5219 69.8393V61.7854Z" fill="#F3F0F0"/>
<path d="M29.5612 52.9993C26.868 53.9443 25.8807 54.9094 25.4796 57.7585H30.3033C30.5075 55.6353 30.2917 54.6214 29.5612 52.9993Z" fill="#F3F0F0"/>
<path d="M34.2611 57.8805C34.2321 55.6859 34.1712 54.4558 33.6427 52.2672C37.6428 51.4244 39.3376 50.2684 40.8165 46.2878H43.0428V57.8805H34.2611Z" fill="#F3F0F0"/>
<path d="M40.8165 42.2608H43.0428V13.9502C39.4549 17.5943 38.0794 22.5928 36.8586 37.3797C38.9936 38.6783 39.8412 39.7386 40.8165 42.2608Z" fill="#F3F0F0"/>
<path d="M17.4402 52.9993C20.1334 53.9443 21.1208 54.9094 21.5219 57.7585H16.6981C16.494 55.6353 16.7098 54.6214 17.4402 52.9993Z" fill="#F3F0F0"/>
<path d="M21.5219 61.7854H17.0693C17.9281 65.3567 18.9217 67.114 21.5219 69.8393V61.7854Z" fill="#F3F0F0"/>
<path d="M29.5612 52.9993C26.868 53.9443 25.8807 54.9094 25.4796 57.7585H30.3033C30.5075 55.6353 30.2917 54.6214 29.5612 52.9993Z" fill="#F3F0F0"/>
<path d="M34.2611 57.8805C34.2321 55.6859 34.1712 54.4558 33.6427 52.2672C37.6428 51.4244 39.3376 50.2684 40.8165 46.2878H43.0428V57.8805H34.2611Z" fill="#F3F0F0"/>
<path d="M40.8165 42.2608H43.0428V13.9502C39.4549 17.5943 38.0794 22.5928 36.8586 37.3797C38.9936 38.6783 39.8412 39.7386 40.8165 42.2608Z" fill="#F3F0F0"/>
<path d="M17.4402 52.9993C20.1334 53.9443 21.1208 54.9094 21.5219 57.7585H16.6981C16.494 55.6353 16.7098 54.6214 17.4402 52.9993Z" fill="#F3F0F0"/>
<path d="M21.5219 61.7854H17.0693C17.9281 65.3567 18.9217 67.114 21.5219 69.8393V61.7854Z" fill="#F3F0F0"/>
<path d="M29.5612 52.9993C26.868 53.9443 25.8807 54.9094 25.4796 57.7585H30.3033C30.5075 55.6353 30.2917 54.6214 29.5612 52.9993Z" fill="#F3F0F0"/>
<path d="M34.2611 57.8805C34.2321 55.6859 34.1712 54.4558 33.6427 52.2672C37.6428 51.4244 39.3376 50.2684 40.8165 46.2878H43.0428V57.8805H34.2611Z" fill="#F3F0F0"/>
<path d="M40.8165 42.2608H43.0428V13.9502C39.4549 17.5943 38.0794 22.5928 36.8586 37.3797C38.9936 38.6783 39.8412 39.7386 40.8165 42.2608Z" fill="#F3F0F0"/>
<path d="M17.4402 52.9993C20.1334 53.9443 21.1208 54.9094 21.5219 57.7585H16.6981C16.494 55.6353 16.7098 54.6214 17.4402 52.9993Z" fill="#F3F0F0"/>
<path d="M21.5219 61.7854H17.0693C17.9281 65.3567 18.9217 67.114 21.5219 69.8393V61.7854Z" fill="#F3F0F0"/>
<path d="M12.7403 57.8805C12.7694 55.6859 12.8303 54.4558 13.3587 52.2672C9.35866 51.4244 7.66386 50.2684 6.18493 46.2878H3.95862V57.8805H12.7403Z" fill="#F3F0F0"/>
<path d="M6.18493 42.2608H3.95862V13.9502C7.54659 17.5943 8.92202 22.5928 10.1428 37.3797C8.00786 38.6783 7.16021 39.7386 6.18493 42.2608Z" fill="#F3F0F0"/>
<path d="M29.5612 52.9993C26.868 53.9443 25.8807 54.9094 25.4796 57.7585H30.3033C30.5075 55.6353 30.2917 54.6214 29.5612 52.9993Z" fill="#F3F0F0"/>
<path d="M34.2611 57.8805C34.2321 55.6859 34.1712 54.4558 33.6427 52.2672C37.6428 51.4244 39.3376 50.2684 40.8165 46.2878H43.0428V57.8805H34.2611Z" fill="#F3F0F0"/>
<path d="M40.8165 42.2608H43.0428V13.9502C39.4549 17.5943 38.0794 22.5928 36.8586 37.3797C38.9936 38.6783 39.8412 39.7386 40.8165 42.2608Z" fill="#F3F0F0"/>
<path d="M17.4402 52.9993C20.1334 53.9443 21.1208 54.9094 21.5219 57.7585H16.6981C16.494 55.6353 16.7098 54.6214 17.4402 52.9993Z" fill="#F3F0F0"/>
<path d="M21.5219 61.7854H17.0693C17.9281 65.3567 18.9217 67.114 21.5219 69.8393V61.7854Z" fill="#F3F0F0"/>
<path d="M29.5612 52.9993C26.868 53.9443 25.8807 54.9094 25.4796 57.7585H30.3033C30.5075 55.6353 30.2917 54.6214 29.5612 52.9993Z" fill="#F3F0F0"/>
<path d="M34.2611 57.8805C34.2321 55.6859 34.1712 54.4558 33.6427 52.2672C37.6428 51.4244 39.3376 50.2684 40.8165 46.2878H43.0428V57.8805H34.2611Z" fill="#F3F0F0"/>
<path d="M40.8165 42.2608H43.0428V13.9502C39.4549 17.5943 38.0794 22.5928 36.8586 37.3797C38.9936 38.6783 39.8412 39.7386 40.8165 42.2608Z" fill="#F3F0F0"/>
<path d="M17.4402 52.9993C20.1334 53.9443 21.1208 54.9094 21.5219 57.7585H16.6981C16.494 55.6353 16.7098 54.6214 17.4402 52.9993Z" fill="#F3F0F0"/>
<path d="M21.5219 61.7854H17.0693C17.9281 65.3567 18.9217 67.114 21.5219 69.8393V61.7854Z" fill="#F3F0F0"/>
<path d="M29.5612 52.9993C26.868 53.9443 25.8807 54.9094 25.4796 57.7585H30.3033C30.5075 55.6353 30.2917 54.6214 29.5612 52.9993Z" fill="#F3F0F0"/>
<path d="M34.2611 57.8805C34.2321 55.6859 34.1712 54.4558 33.6427 52.2672C37.6428 51.4244 39.3376 50.2684 40.8165 46.2878H43.0428V57.8805H34.2611Z" fill="#F3F0F0"/>
<path d="M40.8165 42.2608H43.0428V13.9502C39.4549 17.5943 38.0794 22.5928 36.8586 37.3797C38.9936 38.6783 39.8412 39.7386 40.8165 42.2608Z" fill="#F3F0F0"/>
<path d="M17.4402 52.9993C20.1334 53.9443 21.1208 54.9094 21.5219 57.7585H16.6981C16.494 55.6353 16.7098 54.6214 17.4402 52.9993Z" fill="#F3F0F0"/>
<path d="M21.5219 61.7854H17.0693C17.9281 65.3567 18.9217 67.114 21.5219 69.8393V61.7854Z" fill="#F3F0F0"/>
<path d="M29.5612 52.9993C26.868 53.9443 25.8807 54.9094 25.4796 57.7585H30.3033C30.5075 55.6353 30.2917 54.6214 29.5612 52.9993Z" fill="#F3F0F0"/>
<path d="M34.2611 57.8805C34.2321 55.6859 34.1712 54.4558 33.6427 52.2672C37.6428 51.4244 39.3376 50.2684 40.8165 46.2878H43.0428V57.8805H34.2611Z" fill="#F3F0F0"/>
<path d="M40.8165 42.2608H43.0428V13.9502C39.4549 17.5943 38.0794 22.5928 36.8586 37.3797C38.9936 38.6783 39.8412 39.7386 40.8165 42.2608Z" fill="#F3F0F0"/>
<path d="M27.4586 49.2165L23.5007 39.9423L19.2954 49.2165L23.5007 52.3892L27.4586 49.2165Z" fill="#F3F0F0"/>
<defs>
<linearGradient id="paint0_linear_187_4533" x1="23.5" y1="0" x2="23.5" y2="77" gradientUnits="userSpaceOnUse">
<stop offset="0.484954" stop-color="#3A77C7"/>
<stop offset="0.485054" stop-color="#FDD817"/>
</linearGradient>
</defs>
</svg>
