<svg width="45" height="45" viewBox="0 0 45 45" fill="none" xmlns="http://www.w3.org/2000/svg">
<path d="M30 11.3875V6.425C30 5.98317 29.6418 5.625 29.2 5.625H25.3125C19.6875 5.625 15.9375 9.375 15.9375 14.0625V17.95C15.9375 18.3918 15.5793 18.75 15.1375 18.75H12.05C11.6082 18.75 11.25 19.1082 11.25 19.55V24.5125C11.25 24.9543 11.6082 25.3125 12.05 25.3125H15.1375C15.5793 25.3125 15.9375 25.6707 15.9375 26.1125V38.575C15.9375 39.0168 16.2957 39.375 16.7375 39.375H22.6375C23.0793 39.375 23.4375 39.0168 23.4375 38.575V26.1125C23.4375 25.6707 23.7957 25.3125 24.2375 25.3125H27.5216C27.8787 25.3125 28.1927 25.0757 28.2908 24.7323L29.7086 19.7698C29.8547 19.2587 29.4709 18.75 28.9394 18.75H24.2375C23.7957 18.75 23.4375 18.3918 23.4375 17.95V12.9875C23.4375 12.5457 23.7957 12.1875 24.2375 12.1875H29.2C29.6418 12.1875 30 11.8293 30 11.3875Z" fill="#05003E" stroke="#05003E" stroke-width="0.5"/>
<path d="M30 12.0875V5.725C30 5.66977 29.9552 5.625 29.9 5.625H25.3125C19.6875 5.625 15.9375 9.375 15.9375 14.0625V18.65C15.9375 18.7052 15.8927 18.75 15.8375 18.75H11.35C11.2948 18.75 11.25 18.7948 11.25 18.85V25.2125C11.25 25.2677 11.2948 25.3125 11.35 25.3125H15.8375C15.8927 25.3125 15.9375 25.3573 15.9375 25.4125V39.275C15.9375 39.3302 15.9823 39.375 16.0375 39.375H23.3375C23.3927 39.375 23.4375 39.3302 23.4375 39.275V25.4125C23.4375 25.3573 23.4823 25.3125 23.5375 25.3125H28.0496C28.0942 25.3125 28.1335 25.2829 28.1457 25.24L29.9636 18.8775C29.9818 18.8136 29.9339 18.75 29.8674 18.75H23.5375C23.4823 18.75 23.4375 18.7052 23.4375 18.65V12.2875C23.4375 12.2323 23.4823 12.1875 23.5375 12.1875H29.9C29.9552 12.1875 30 12.1427 30 12.0875Z" fill="#05003E" stroke="#05003E" stroke-width="0.5"/>
</svg>
