<svg width="271" height="164" viewBox="0 0 271 164" fill="none" xmlns="http://www.w3.org/2000/svg">
<path d="M72.4215 125.297L75.5791 135.491L78.1314 134.701C78.9109 134.459 80.1368 133.929 80.6818 132.822C81.0099 132.151 81.0134 131.513 80.7862 130.78C80.5921 130.153 80.2521 129.488 79.522 129.077C78.8567 128.714 78.1779 128.74 77.9803 128.751C78.1765 128.573 78.4206 128.28 78.5268 127.811C78.6482 127.338 78.5815 126.906 78.4585 126.509C78.1981 125.669 77.7347 125.092 77.0235 124.743C76.157 124.324 75.2796 124.412 73.9652 124.819L72.4215 125.297ZM74.4349 126.281L74.9699 126.116C75.4131 125.978 75.8705 125.887 76.3262 126.114C76.7418 126.321 76.9013 126.673 76.996 126.979C77.1048 127.33 77.2057 127.818 76.9584 128.263C76.7004 128.729 76.195 128.935 75.8129 129.054L75.3391 129.201L74.4349 126.281ZM75.7368 130.484L76.7149 130.181C77.2651 130.011 77.906 129.863 78.4617 130.143C78.802 130.322 79.0779 130.672 79.2058 131.085C79.3478 131.543 79.2816 132.033 79.0517 132.372C78.7537 132.816 78.0744 133.11 77.6311 133.248L76.6836 133.541L75.7368 130.484ZM81.3558 126.65L83.3488 133.085L84.8466 132.621L82.8536 126.186L81.3558 126.65ZM80.3181 124.057C80.4885 124.607 81.029 124.892 81.5792 124.722C82.1294 124.551 82.4143 124.011 82.2439 123.461C82.0734 122.91 81.533 122.626 80.9827 122.796C80.4325 122.966 80.1477 123.507 80.3181 124.057ZM86.7369 132.035L88.2347 131.571L87.4062 128.897L90.0656 128.073L90.894 130.748L92.3918 130.284L90.3988 123.849L88.901 124.313L89.6395 126.697L86.9802 127.521L86.2417 125.137L84.7439 125.601L86.7369 132.035ZM94.2891 129.696L95.7869 129.232L94.9585 126.557L97.6178 125.734L98.4463 128.408L99.9441 127.944L97.9511 121.51L96.4533 121.974L97.1918 124.358L94.5324 125.182L93.7939 122.798L92.2961 123.262L94.2891 129.696ZM99.8484 120.922L101.993 127.846L105.083 122.249L106.243 125.993L107.741 125.529L105.568 118.514L102.478 124.111L101.346 120.458L99.8484 120.922ZM109.632 124.944L114.859 123.325L115.428 125.159L116.803 124.732L115.809 121.523L114.739 121.854L113.172 116.795L111.674 117.259L113.241 122.318L110.704 123.104L109.137 118.045L107.639 118.509L109.632 124.944ZM117.304 122.567L119.643 121.843C120.284 121.644 120.957 121.436 121.352 120.711C121.552 120.33 121.687 119.736 121.455 118.987C121.336 118.605 121.089 118.078 120.515 117.737C119.735 117.275 118.997 117.487 118.37 117.681L117.514 117.946L116.809 115.669L115.311 116.133L117.304 122.567ZM118.404 120.82L117.912 119.23L118.615 119.012C118.844 118.941 119.15 118.847 119.442 118.924C119.663 118.989 119.862 119.145 119.962 119.466C120.085 119.864 119.912 120.118 119.829 120.228C119.668 120.411 119.382 120.517 119.092 120.607L118.404 120.82ZM121.431 114.237L123.424 120.672L124.921 120.208L124.178 117.808L124.347 117.488L127.306 119.469L129.201 118.882L125.114 116.179L127.055 112.495L125.068 113.111L123.638 116.066L122.928 113.774L121.431 114.237ZM133.131 111.434C132.274 110.829 131.41 110.962 130.937 111.109C129.24 111.634 128.201 113.363 128.85 115.457C129.399 117.23 131.041 118.53 133.028 117.915C133.486 117.773 134.263 117.415 134.684 116.447L134.892 117.12L136.39 116.656L134.397 110.221L132.899 110.685L133.131 111.434ZM131.537 112.397C132.484 112.103 133.564 112.506 133.999 113.912C134.416 115.257 133.758 116.215 132.81 116.508C131.725 116.844 130.733 116.13 130.388 115.014C130.032 113.868 130.451 112.733 131.537 112.397ZM138.974 104.683L142.132 114.877L143.691 114.394L140.533 104.2L138.974 104.683ZM148.594 103.311L148.14 101.844L141.904 103.775L142.359 105.243L144.697 104.518L147.4 113.245L148.959 112.763L146.256 104.036L148.594 103.311ZM151.444 109.28L155.112 108.143L154.629 106.584L150.961 107.721L151.444 109.28ZM165.551 107.623L167.232 107.103L159.06 97.8083L157.328 110.17L159.01 109.65L159.363 106.843L163.719 105.494L165.551 107.623ZM159.551 105.177L160.055 101.236L162.638 104.221L159.551 105.177ZM166.252 100.355L168.245 106.789L169.742 106.325L168.999 103.926L169.168 103.605L172.127 105.587L174.022 105L169.935 102.296L171.876 98.6125L169.889 99.2279L168.46 102.183L167.749 99.8907L166.252 100.355ZM177.952 97.5513C177.095 96.9459 176.232 97.0792 175.758 97.226C174.061 97.7514 173.022 99.4803 173.671 101.574C174.22 103.347 175.862 104.647 177.849 104.032C178.308 103.89 179.084 103.532 179.505 102.564L179.713 103.237L181.211 102.773L179.218 96.3384L177.72 96.8024L177.952 97.5513ZM176.358 98.5141C177.305 98.2206 178.385 98.6233 178.82 100.029C179.237 101.374 178.579 102.332 177.631 102.625C176.546 102.962 175.554 102.247 175.209 101.131C174.854 99.985 175.273 98.8502 176.358 98.5141ZM181.668 95.5797L182.449 98.1015C182.69 98.881 182.775 99.4243 182.714 99.8785C182.639 100.337 182.369 100.873 181.798 101.084L182.792 104.293L184.168 103.867L183.599 102.033L188.093 100.641L188.661 102.475L190.036 102.049L189.042 98.8397L188.064 99.1427L186.497 94.0838L181.668 95.5797ZM186.566 99.6066L183.922 100.426C184.225 99.9968 184.406 99.3377 184.061 98.222L183.53 96.5102L185.425 95.9232L186.566 99.6066ZM194.38 96.3155C194.318 96.6026 194.2 96.924 194.001 97.2032C193.767 97.5271 193.489 97.7135 193.077 97.8413C192.71 97.9549 192.263 98.0263 191.803 97.7837C191.382 97.5622 191.023 97.104 190.85 96.655L195.466 95.2254L195.409 95.042C195.201 94.3695 194.755 93.201 193.665 92.6008C193.159 92.3217 192.365 92.0821 191.341 92.3992C190.424 92.6833 189.825 93.2373 189.456 93.9379C188.996 94.834 188.943 95.9057 189.251 96.8991C189.549 97.862 190.16 98.6443 190.961 99.0663C191.761 99.4883 192.531 99.4845 193.386 99.2194C194.074 99.0064 194.715 98.6405 195.13 98.1433C195.462 97.7557 195.727 97.2047 195.851 96.6304L194.38 96.3155ZM190.578 95.3992C190.555 95.0546 190.629 94.6968 190.781 94.4318C190.918 94.1716 191.188 93.8535 191.708 93.6925C192.197 93.5411 192.575 93.625 192.83 93.7469C193.126 93.8899 193.389 94.1435 193.559 94.4761L190.578 95.3992ZM197.183 97.8258L198.711 97.3524L198.354 93.9287L201.553 97.0083L202.45 92.66L204.091 95.686L205.619 95.2126L201.888 88.6803L200.748 94.4101L196.569 90.3277L197.183 97.8258ZM204.789 88.4181L206.782 94.8525L208.28 94.3886L206.287 87.9541L204.789 88.4181ZM203.751 85.825C203.922 86.3752 204.462 86.66 205.013 86.4896C205.563 86.3192 205.848 85.7787 205.677 85.2285C205.507 84.6783 204.966 84.3935 204.416 84.5639C203.866 84.7343 203.581 85.2748 203.751 85.825ZM209.345 94.0587L211.102 93.5143L212.126 90.6009L212.432 90.5062L213.166 92.8752L214.664 92.4113L212.671 85.9769L210.271 86.7201C209.614 86.9237 208.976 87.1884 208.586 87.8784C208.229 88.5084 208.322 89.1329 208.449 89.5456C208.591 90.0041 208.861 90.44 209.396 90.7095C209.712 90.8631 210.125 90.9529 210.572 90.8814L209.345 94.0587ZM212.053 89.2836L211.167 89.5581C210.8 89.6717 210.515 89.7264 210.294 89.6609C210.108 89.6013 209.894 89.4499 209.794 89.129C209.704 88.8386 209.802 88.5573 209.962 88.3734C210.139 88.1849 210.409 88.0844 210.699 87.9945L211.57 87.7246L212.053 89.2836Z" fill="#05003E"/>
<path d="M46.0566 72.4099C48.5172 71.6477 50.4749 71.6276 51.9297 72.3495C53.3967 73.0481 54.4174 74.3246 54.9918 76.179C55.2514 77.017 55.3751 77.8581 55.3629 78.7021C55.3453 79.5284 55.1361 80.3357 54.7355 81.1242C54.3471 81.8894 53.7329 82.5877 52.8928 83.2192C52.0527 83.8507 50.9372 84.3819 49.5464 84.8126L47.8079 85.3511L49.9122 92.1447L45.8735 93.3957L39.9584 74.2987L46.0566 72.4099ZM46.8699 75.7927L45.0244 76.3644L46.7807 82.0346L48.118 81.6204C48.8847 81.3829 49.5141 81.0805 50.0061 80.7131C50.4981 80.3458 50.8294 79.9012 51 79.3793C51.1705 78.8575 51.1509 78.2578 50.941 77.5802C50.6483 76.6352 50.1743 76.0199 49.5192 75.7343C48.8585 75.4308 47.9754 75.4503 46.8699 75.7927ZM74.8147 76.3998C75.1902 77.6123 75.355 78.7436 75.3089 79.7936C75.2807 80.838 75.0567 81.7868 74.6369 82.6398C74.2295 83.4695 73.6414 84.1891 72.8726 84.7985C72.0983 85.39 71.1584 85.857 70.0529 86.1995C69.0365 86.5143 68.0418 86.6465 67.0687 86.5962C66.1079 86.5225 65.216 86.2613 64.3931 85.8127C63.5646 85.3463 62.8258 84.6958 62.1764 83.8612C61.5449 83.0211 61.0414 81.9948 60.6658 80.7823C60.1633 79.1597 60.026 77.7072 60.2542 76.425C60.4769 75.1249 61.032 74.015 61.9196 73.0952C62.8072 72.1754 63.982 71.489 65.4442 71.0362C66.8172 70.6109 68.1208 70.5295 69.3551 70.7921C70.5894 71.0547 71.6836 71.6537 72.6378 72.5893C73.5865 73.5071 74.3121 74.7772 74.8147 76.3998ZM64.7313 79.5231C65.0295 80.4859 65.3789 81.2669 65.7794 81.8659C66.1922 82.4415 66.6739 82.8297 67.2246 83.0304C67.7698 83.2133 68.399 83.1942 69.1123 82.9733C69.8255 82.7524 70.3464 82.4152 70.6749 81.9617C71.0158 81.4848 71.1848 80.8951 71.1821 80.1924C71.1918 79.4664 71.0475 78.6219 70.7492 77.6591C70.451 76.6962 70.0955 75.9269 69.6827 75.3513C69.2877 74.7702 68.8176 74.3881 68.2724 74.2052C67.7273 74.0224 67.098 74.0414 66.3848 74.2623C65.3328 74.5881 64.6793 75.1912 64.4243 76.0714C64.1816 76.9282 64.2839 78.0788 64.7313 79.5231ZM78.2576 73.7799C77.5893 71.6223 77.2907 69.7118 77.3617 68.0483C77.4272 66.367 77.9013 64.9011 78.7842 63.6506C79.6615 62.3822 80.9866 61.2976 82.7595 60.3967C83.6548 59.9435 84.5673 59.5143 85.497 59.1091C86.4391 58.6805 87.4079 58.2437 88.4034 57.7985L89.9351 61.1347C89.5059 61.3263 89.0348 61.5406 88.522 61.7776C88.0036 61.9967 87.4791 62.2276 86.9485 62.4701C86.4301 62.6893 85.9323 62.9119 85.4552 63.1379C84.978 63.3638 84.5426 63.5671 84.1491 63.7476C83.5225 64.0589 82.9899 64.39 82.5514 64.7408C82.1074 65.0737 81.7684 65.4621 81.5346 65.9058C81.3007 66.3495 81.1769 66.8959 81.163 67.5451C81.1614 68.1709 81.2747 68.9468 81.5029 69.8728L81.6901 69.8148C81.7991 69.4097 81.9884 68.9798 82.2579 68.525C82.5453 68.0647 82.9383 67.6303 83.4371 67.2218C83.9359 66.8132 84.5509 66.4958 85.2819 66.2693C86.4409 65.9103 87.5229 65.839 88.5279 66.0553C89.5329 66.2717 90.4136 66.7806 91.1699 67.582C91.9262 68.3834 92.5226 69.4885 92.9589 70.8971C93.4725 72.5554 93.5974 74.0312 93.3336 75.3245C93.0697 76.6178 92.4913 77.7154 91.5981 78.6174C90.6995 79.5015 89.5459 80.1617 88.1372 80.598C87.0674 80.9294 86.0348 81.0343 85.0396 80.9126C84.0444 80.791 83.116 80.4434 82.2544 79.87C81.3929 79.2966 80.6187 78.5007 79.932 77.4822C79.2631 76.4583 78.7049 75.2242 78.2576 73.7799ZM87.3755 77.2872C87.9461 77.1104 88.3978 76.8337 88.7306 76.4571C89.0812 76.0749 89.2841 75.5626 89.3391 74.9202C89.412 74.2723 89.2994 73.4669 89.0011 72.5041C88.6421 71.3451 88.1616 70.4875 87.5594 69.9314C86.9696 69.352 86.2021 69.2087 85.2571 69.5014C84.6865 69.6781 84.1957 69.9864 83.7849 70.4264C83.3863 70.843 83.0728 71.282 82.8445 71.7436C82.6106 72.1873 82.4699 72.5533 82.4225 72.8416C82.6378 73.537 82.9012 74.198 83.2125 74.8246C83.5184 75.4334 83.8762 75.9577 84.286 76.3975C84.6958 76.8372 85.1527 77.1452 85.6567 77.3213C86.1785 77.4918 86.7514 77.4805 87.3755 77.2872ZM110.955 65.2059C111.33 66.4184 111.495 67.5496 111.449 68.5996C111.421 69.644 111.197 70.5928 110.777 71.4458C110.37 72.2755 109.781 72.9951 109.013 73.6045C108.238 74.1961 107.298 74.6631 106.193 75.0055C105.177 75.3203 104.182 75.4525 103.209 75.4022C102.248 75.3285 101.356 75.0674 100.533 74.6188C99.7046 74.1523 98.9658 73.5018 98.3164 72.6672C97.6849 71.8271 97.1814 70.8008 96.8058 69.5883C96.3032 67.9657 96.166 66.5133 96.3942 65.231C96.6168 63.9309 97.172 62.821 98.0596 61.9012C98.9472 60.9814 100.122 60.2951 101.584 59.8422C102.957 59.4169 104.261 59.3356 105.495 59.5982C106.729 59.8607 107.824 60.4598 108.778 61.3954C109.726 62.3131 110.452 63.5833 110.955 65.2059ZM100.871 68.3291C101.17 69.292 101.519 70.0729 101.919 70.6719C102.332 71.2475 102.814 71.6357 103.365 71.8364C103.91 72.0193 104.539 72.0003 105.252 71.7794C105.966 71.5585 106.486 71.2212 106.815 70.7677C107.156 70.2909 107.325 69.7011 107.322 68.9984C107.332 68.2724 107.187 67.428 106.889 66.4651C106.591 65.5022 106.235 64.733 105.823 64.1573C105.428 63.5762 104.958 63.1942 104.412 63.0113C103.867 62.8284 103.238 62.8474 102.525 63.0683C101.473 63.3942 100.819 63.9972 100.564 64.8774C100.322 65.7342 100.424 66.8848 100.871 68.3291ZM126.222 55.787L121.434 57.2699L125.03 68.8779L121.045 70.1122L117.449 58.5043L112.662 59.9872L111.734 56.9916L125.294 52.7914L126.222 55.787ZM127.373 52.1475L131.733 50.7971L137.031 58.1549C137.203 58.3948 137.357 58.6402 137.494 58.8911C137.648 59.1364 137.787 59.3962 137.911 59.6705C138.053 59.9392 138.182 60.2313 138.3 60.5467L138.38 60.5219C138.29 60.0417 138.226 59.5828 138.188 59.145C138.162 58.6839 138.151 58.2379 138.154 57.807L138.312 48.7591L142.592 47.4336L141.517 65.8231C141.452 66.9376 141.221 67.9275 140.824 68.7929C140.446 69.6527 139.917 70.3735 139.237 70.9553C138.557 71.5371 137.754 71.9716 136.827 72.2588C136.381 72.3969 135.981 72.4917 135.625 72.5431C135.293 72.6068 134.994 72.6506 134.728 72.6745L133.75 69.5184C133.957 69.4933 134.2 69.4572 134.479 69.41C134.775 69.3573 135.075 69.284 135.378 69.1901C135.931 69.0189 136.367 68.7566 136.688 68.4033C137.026 68.0445 137.266 67.6186 137.406 67.1256C137.552 66.6505 137.633 66.1563 137.65 65.643L137.667 64.8463L127.373 52.1475ZM171.92 42.5414C172.163 43.3259 172.12 44.0719 171.792 44.7793C171.482 45.4812 170.87 46.0615 169.957 46.5202L169.99 46.6272C171.045 46.4372 171.964 46.5336 172.747 46.9164C173.548 47.2937 174.086 47.9281 174.363 48.8197C174.556 49.4437 174.611 50.0619 174.527 50.6742C174.46 51.2809 174.23 51.8605 173.834 52.4129C173.438 52.9654 172.864 53.4756 172.11 53.9436C171.374 54.4061 170.426 54.8169 169.267 55.1759L162.313 57.3298L157.79 42.7263L164.744 40.5723C165.885 40.2189 166.94 40.0289 167.909 40.0024C168.89 39.9525 169.725 40.1239 170.413 40.5165C171.119 40.9035 171.621 41.5785 171.92 42.5414ZM170.177 49.8815C170.001 49.3109 169.651 48.9698 169.128 48.8583C168.599 48.7289 167.889 48.8023 166.997 49.0784L164.376 49.8903L165.445 53.3406L168.146 52.5038C168.895 52.2719 169.469 51.9476 169.868 51.531C170.278 51.0911 170.382 50.5412 170.177 49.8815ZM167.98 44.1133C167.837 43.6497 167.553 43.3661 167.131 43.2626C166.708 43.1591 166.149 43.215 165.453 43.4304L162.645 44.3003L163.539 47.1889L165.893 46.4599C166.731 46.2003 167.328 45.8883 167.684 45.524C168.053 45.1363 168.152 44.666 167.98 44.1133ZM199.699 45.75L191.006 48.4424L190.294 46.1422L192.289 44.3516L188.462 31.9948L185.804 31.6457L185.091 29.3455L193.784 26.6531L194.496 28.9532L192.501 30.7438L196.328 43.1007L198.986 43.4498L199.699 45.75ZM211.779 42.0081L207.741 43.2591L202.869 27.5322L197.681 29.1394L196.637 25.7693L211.053 21.3041L212.097 24.6741L206.908 26.2813L211.779 42.0081ZM46.5191 99.4853L47.5547 102.829L39.5308 105.314L44.4103 121.067L40.3716 122.318L34.4565 103.222L46.5191 99.4853ZM55.7492 101.228C57.7106 100.621 59.341 100.585 60.6403 101.12C61.9519 101.633 62.8783 102.762 63.4196 104.51L66.4351 114.246L63.6535 115.107L62.2648 113.368L62.1578 113.401C61.9078 114.045 61.6124 114.606 61.2716 115.083C60.9486 115.554 60.5239 115.949 59.9975 116.269C59.4944 116.601 58.8328 116.893 58.0126 117.147C57.1567 117.413 56.3313 117.492 55.5365 117.387C54.754 117.258 54.0617 116.915 53.4595 116.359C52.8519 115.785 52.3851 114.972 52.0592 113.92C51.5787 112.369 51.7691 111.059 52.6304 109.992C53.4861 108.906 54.9906 107.99 57.1439 107.245L59.6599 106.378L59.4611 105.736C59.2236 104.969 58.8446 104.471 58.324 104.241C57.8213 104.006 57.2133 103.999 56.5 104.22C55.7868 104.441 55.1245 104.763 54.5132 105.187C53.8964 105.593 53.2962 106.053 52.7125 106.566L50.5652 104.27C51.2227 103.617 51.9881 103.028 52.8613 102.504C53.7524 101.974 54.7151 101.549 55.7492 101.228ZM58.8459 109.239C57.5732 109.672 56.7534 110.18 56.3867 110.763C56.02 111.345 55.9443 111.984 56.1597 112.68C56.3475 113.286 56.6611 113.668 57.1006 113.825C57.5345 113.964 58.0368 113.945 58.6074 113.768C59.4633 113.503 60.1081 113.03 60.5419 112.348C60.9701 111.649 61.0407 110.836 60.7535 109.908L60.3807 108.705L58.8459 109.239ZM75.5101 95.137C77.1506 94.6289 78.6778 94.8593 80.0918 95.8283C81.5003 96.7795 82.5884 98.4944 83.3561 100.973C83.8697 102.631 84.0626 104.105 83.9346 105.396C83.8011 106.668 83.4037 107.72 82.7424 108.55C82.0811 109.38 81.1976 109.966 80.0921 110.309C79.3967 110.524 78.7629 110.623 78.1905 110.604C77.636 110.581 77.1363 110.482 76.6913 110.307C76.2463 110.132 75.8404 109.925 75.4735 109.687L75.2595 109.754C75.4358 110.07 75.5998 110.41 75.7514 110.774C75.8975 111.119 76.0258 111.47 76.1363 111.827L77.9588 117.711L73.9736 118.946L67.4621 97.9229L70.6984 96.9205L71.8483 98.6455L72.0355 98.5875C72.1815 98.1124 72.392 97.6564 72.667 97.2194C72.9365 96.7646 73.2994 96.3591 73.7558 96.0028C74.23 95.641 74.8147 95.3524 75.5101 95.137ZM75.2122 98.7174C74.5168 98.9328 74.0082 99.2467 73.6864 99.659C73.3647 100.071 73.1969 100.602 73.183 101.251C73.1814 101.877 73.307 102.63 73.5598 103.509L73.6924 103.937C73.9851 104.882 74.3228 105.657 74.7054 106.261C75.0826 106.848 75.5376 107.244 76.0705 107.45C76.6033 107.657 77.2353 107.647 77.9664 107.42C78.5726 107.232 79.0194 106.908 79.3068 106.448C79.5941 105.988 79.7337 105.397 79.7255 104.677C79.7173 103.956 79.5668 103.124 79.2741 102.179C78.8322 100.752 78.278 99.7513 77.6113 99.1761C76.9569 98.5776 76.1572 98.4247 75.2122 98.7174ZM91.7586 90.0749C93.72 89.4673 95.3504 89.4314 96.6497 89.9669C97.9613 90.4791 98.8877 91.6089 99.429 93.3564L102.444 103.092L99.6629 103.954L98.2742 102.215L98.1672 102.248C97.9172 102.892 97.6218 103.452 97.281 103.929C96.958 104.401 96.5333 104.796 96.0069 105.115C95.5038 105.447 94.8422 105.74 94.022 105.994C93.1661 106.259 92.3407 106.339 91.5459 106.233C90.7634 106.104 90.0711 105.762 89.4689 105.206C88.8613 104.632 88.3945 103.819 88.0686 102.767C87.5881 101.216 87.7785 99.906 88.6398 98.838C89.4955 97.7522 91 96.8367 93.1533 96.0916L95.6693 95.2244L95.4705 94.5825C95.233 93.8157 94.854 93.3176 94.3334 93.088C93.8307 92.8529 93.2227 92.8458 92.5094 93.0667C91.7962 93.2876 91.1339 93.61 90.5226 94.0338C89.9058 94.4398 89.3056 94.8993 88.7219 95.4123L86.5746 93.1169C87.2321 92.4638 87.9975 91.8749 88.8707 91.3504C89.7618 90.8204 90.7245 90.3952 91.7586 90.0749ZM94.8553 98.0853C93.5826 98.5186 92.7628 99.0266 92.3961 99.6091C92.0294 100.192 91.9537 100.831 92.1691 101.526C92.3569 102.132 92.6705 102.514 93.11 102.671C93.5439 102.81 94.0462 102.791 94.6168 102.615C95.4727 102.35 96.1175 101.876 96.5513 101.195C96.9795 100.495 97.0501 99.6821 96.7629 98.7549L96.3901 97.5513L94.8553 98.0853ZM107.457 85.535L109.196 91.1517L114.76 89.4286L113.02 83.8119L117.005 82.5775L121.528 97.181L117.543 98.4154L115.679 92.3974L110.116 94.1206L111.98 100.139L107.995 101.373L103.471 86.7694L107.457 85.535ZM135.669 80.0796L130.881 81.5625L134.477 93.1704L130.491 94.4048L126.896 82.7969L122.108 84.2798L121.181 81.2842L134.741 77.084L135.669 80.0796ZM154.165 79.0407C154.54 80.2532 154.705 81.3845 154.659 82.4344C154.631 83.4789 154.407 84.4276 153.987 85.2807C153.579 86.1104 152.991 86.8299 152.223 87.4393C151.448 88.0309 150.508 88.4979 149.403 88.8403C148.386 89.1551 147.392 89.2874 146.419 89.237C145.458 89.1634 144.566 88.9022 143.743 88.4536C142.915 87.9872 142.176 87.3366 141.526 86.5021C140.895 85.662 140.391 84.6357 140.016 83.4232C139.513 81.8005 139.376 80.3481 139.604 79.0659C139.827 77.7658 140.382 76.6558 141.27 75.736C142.157 74.8162 143.332 74.1299 144.794 73.677C146.167 73.2518 147.471 73.1704 148.705 73.433C149.939 73.6955 151.034 74.2946 151.988 75.2302C152.936 76.1479 153.662 77.4181 154.165 79.0407ZM144.081 82.1639C144.379 83.1268 144.729 83.9077 145.129 84.5067C145.542 85.0824 146.024 85.4705 146.575 85.6712C147.12 85.8541 147.749 85.8351 148.462 85.6142C149.175 85.3933 149.696 85.0561 150.025 84.6026C150.366 84.1257 150.535 83.5359 150.532 82.8333C150.542 82.1073 150.397 81.2628 150.099 80.2999C149.801 79.3371 149.445 78.5678 149.033 77.9922C148.638 77.411 148.168 77.029 147.622 76.8461C147.077 76.6632 146.448 76.6822 145.735 76.9032C144.683 77.229 144.029 77.832 143.774 78.7122C143.532 79.5691 143.634 80.7196 144.081 82.1639ZM170.806 70.105C171.049 70.8896 171.006 71.6355 170.678 72.3429C170.368 73.0448 169.756 73.6251 168.843 74.0838L168.876 74.1908C169.931 74.0008 170.85 74.0972 171.633 74.48C172.434 74.8573 172.973 75.4917 173.249 76.3833C173.442 77.0074 173.497 77.6255 173.413 78.2378C173.347 78.8445 173.116 79.4241 172.72 79.9765C172.325 80.529 171.75 81.0392 170.996 81.5072C170.26 81.9698 169.312 82.3805 168.153 82.7395L161.199 84.8934L156.676 70.2899L163.63 68.136C164.771 67.7825 165.826 67.5925 166.795 67.566C167.776 67.5161 168.611 67.6875 169.299 68.0801C170.005 68.4672 170.508 69.1421 170.806 70.105ZM169.064 77.4451C168.887 76.8745 168.537 76.5335 168.014 76.4219C167.485 76.2925 166.775 76.3659 165.884 76.642L163.262 77.4539L164.331 80.9042L167.032 80.0675C167.781 79.8355 168.355 79.5112 168.754 79.0946C169.165 78.6547 169.268 78.1049 169.064 77.4451ZM166.867 71.6769C166.723 71.2133 166.44 70.9297 166.017 70.8262C165.594 70.7227 165.035 70.7786 164.339 70.994L161.531 71.8639L162.426 74.7525L164.779 74.0235C165.617 73.7639 166.215 73.4519 166.571 73.0876C166.939 72.6999 167.038 72.2297 166.867 71.6769ZM180.868 62.4742C182.829 61.8667 184.46 61.8307 185.759 62.3663C187.071 62.8785 187.997 64.0083 188.538 65.7557L191.554 75.4914L188.772 76.353L187.383 74.614L187.277 74.6471C187.027 75.2913 186.731 75.8518 186.39 76.3286C186.067 76.8 185.643 77.1953 185.116 77.5147C184.613 77.8464 183.952 78.1393 183.131 78.3933C182.275 78.6584 181.45 78.7382 180.655 78.6326C179.873 78.5037 179.18 78.1612 178.578 77.6051C177.971 77.0312 177.504 76.2183 177.178 75.1663C176.697 73.615 176.888 72.3053 177.749 71.2374C178.605 70.1516 180.109 69.2361 182.263 68.491L184.779 67.6237L184.58 66.9818C184.342 66.2151 183.963 65.7169 183.443 65.4873C182.94 65.2522 182.332 65.2451 181.619 65.4661C180.906 65.687 180.243 66.0093 179.632 66.4332C179.015 66.8392 178.415 67.2987 177.831 67.8117L175.684 65.5163C176.341 64.8631 177.107 64.2743 177.98 63.7498C178.871 63.2198 179.834 62.7946 180.868 62.4742ZM183.965 70.4847C182.692 70.918 181.872 71.4259 181.505 72.0085C181.139 72.5911 181.063 73.2301 181.278 73.9255C181.466 74.5317 181.78 74.9134 182.219 75.0704C182.653 75.2096 183.156 75.1908 183.726 75.014C184.582 74.7489 185.227 74.2756 185.661 73.5941C186.089 72.8948 186.159 72.0815 185.872 71.1543L185.499 69.9507L183.965 70.4847ZM196.566 57.9344L198.306 63.5511L203.869 61.828L202.129 56.2112L206.114 54.9769L210.638 69.5804L206.653 70.8148L204.789 64.7968L199.225 66.52L201.089 72.5379L197.104 73.7723L192.581 59.1688L196.566 57.9344ZM227.28 56.3939C227.656 57.6064 227.821 58.7376 227.775 59.7876C227.746 60.8321 227.522 61.7808 227.103 62.6339C226.695 63.4636 226.107 64.1831 225.338 64.7925C224.564 65.3841 223.624 65.8511 222.519 66.1935C221.502 66.5083 220.508 66.6406 219.534 66.5902C218.574 66.5165 217.682 66.2554 216.859 65.8068C216.03 65.3403 215.292 64.6898 214.642 63.8552C214.011 63.0151 213.507 61.9888 213.132 60.7763C212.629 59.1537 212.492 57.7013 212.72 56.419C212.943 55.119 213.498 54.009 214.385 53.0892C215.273 52.1694 216.448 51.4831 217.91 51.0302C219.283 50.6049 220.587 50.5236 221.821 50.7862C223.055 51.0487 224.149 51.6478 225.104 52.5834C226.052 53.5011 226.778 54.7713 227.28 56.3939ZM217.197 59.5171C217.495 60.48 217.845 61.2609 218.245 61.8599C218.658 62.4355 219.14 62.8237 219.69 63.0244C220.236 63.2073 220.865 63.1883 221.578 62.9674C222.291 62.7465 222.812 62.4093 223.141 61.9557C223.482 61.4789 223.651 60.8891 223.648 60.1865C223.658 59.4604 223.513 58.616 223.215 57.6531C222.917 56.6903 222.561 55.921 222.148 55.3454C221.753 54.7642 221.283 54.3822 220.738 54.1993C220.193 54.0164 219.564 54.0354 218.851 54.2563C217.799 54.5822 217.145 55.1852 216.89 56.0654C216.647 56.9222 216.75 58.0728 217.197 59.5171ZM230.977 42.762L235.151 56.7115L232.476 57.54L228.034 43.6733L230.977 42.762ZM235.464 62.3598C234.959 62.4966 234.479 62.4597 234.023 62.2492C233.579 62.0154 233.289 61.646 233.152 61.1413C233.021 60.6543 233.066 60.2006 233.287 59.7803C233.527 59.3544 233.893 59.0552 234.387 58.8827C234.863 58.7158 235.314 58.752 235.74 58.9914C236.166 59.2307 236.462 59.5884 236.629 60.0643C236.801 60.558 236.773 61.0357 236.545 61.4972C236.311 61.941 235.951 62.2285 235.464 62.3598Z" fill="#05003E"/>
<rect x="0.938324" y="75.6458" width="252.5" height="91.5" rx="10.5916" transform="rotate(-17.2098 0.938324 75.6458)" stroke="#05003E" stroke-width="1.5"/>
</svg>
