<svg width="45" height="45" viewBox="0 0 45 45" fill="none" xmlns="http://www.w3.org/2000/svg">
<path d="M5.44159 16.5368V38.2C5.44159 38.6418 5.79976 39 6.24159 39H11.7065C12.1483 39 12.5065 38.6418 12.5065 38.2V16.5368C12.5065 16.095 12.1483 15.7368 11.7065 15.7368H6.24159C5.79976 15.7368 5.44159 16.095 5.44159 16.5368Z" fill="#05003E"/>
<path d="M24.0701 15.7368H18.6052C18.1634 15.7368 17.8052 16.095 17.8052 16.5368V38.2C17.8052 38.6418 18.1634 39 18.6052 39H24.0701C24.512 39 24.8701 38.6418 24.8701 38.2V25.5789C24.8702 22 31.9351 22 31.9351 25.5789L31.9351 38.2052C31.9351 38.647 32.2932 39 32.7351 39H38.2C38.6418 39 39 38.6418 39 38.2V22.8947C39.0001 17.8471 32.7542 14.3814 26.135 17.7041C25.5716 17.9869 24.8701 17.598 24.8701 16.9676V16.5368C24.8701 16.095 24.512 15.7368 24.0701 15.7368Z" fill="#05003E"/>
<path d="M8.97405 5C3.67528 5 3.67532 12.1579 8.97405 12.1579C14.2728 12.1579 14.2728 5 8.97405 5Z" fill="#05003E"/>
<path d="M5.44159 16.5368V38.2C5.44159 38.6418 5.79976 39 6.24159 39H11.7065C12.1483 39 12.5065 38.6418 12.5065 38.2V16.5368C12.5065 16.095 12.1483 15.7368 11.7065 15.7368H6.24159C5.79976 15.7368 5.44159 16.095 5.44159 16.5368Z" stroke="#05003E" stroke-width="0.5"/>
<path d="M24.0701 15.7368H18.6052C18.1634 15.7368 17.8052 16.095 17.8052 16.5368V38.2C17.8052 38.6418 18.1634 39 18.6052 39H24.0701C24.512 39 24.8701 38.6418 24.8701 38.2V25.5789C24.8702 22 31.9351 22 31.9351 25.5789L31.9351 38.2052C31.9351 38.647 32.2932 39 32.7351 39H38.2C38.6418 39 39 38.6418 39 38.2V22.8947C39.0001 17.8471 32.7542 14.3814 26.135 17.7041C25.5716 17.9869 24.8701 17.598 24.8701 16.9676V16.5368C24.8701 16.095 24.512 15.7368 24.0701 15.7368Z" stroke="#05003E" stroke-width="0.5"/>
<path d="M8.97405 5C3.67528 5 3.67532 12.1579 8.97405 12.1579C14.2728 12.1579 14.2728 5 8.97405 5Z" stroke="#05003E" stroke-width="0.5"/>
<path d="M5.44159 15.8368V38.9C5.44159 38.9552 5.48636 39 5.54159 39H12.4065C12.4617 39 12.5065 38.9552 12.5065 38.9V15.8368C12.5065 15.7816 12.4617 15.7368 12.4065 15.7368H5.54159C5.48636 15.7368 5.44159 15.7816 5.44159 15.8368Z" fill="#05003E"/>
<path d="M24.7701 15.7368H17.9052C17.85 15.7368 17.8052 15.7816 17.8052 15.8368V38.9C17.8052 38.9552 17.85 39 17.9052 39H24.7701C24.8254 39 24.8701 38.9552 24.8701 38.9V25.5789C24.8702 22 31.9351 22 31.9351 25.5789V38.9031C31.9351 38.9584 31.9798 39 32.0351 39H38.9C38.9552 39 39 38.9552 39 38.9V22.8947C39.0001 17.5658 32.0387 14.0001 25.0261 18.3236C24.959 18.365 24.8701 18.3182 24.8701 18.2394V15.8368C24.8701 15.7816 24.8254 15.7368 24.7701 15.7368Z" fill="#05003E"/>
<path d="M8.97405 5C3.67528 5 3.67532 12.1579 8.97405 12.1579C14.2728 12.1579 14.2728 5 8.97405 5Z" fill="#05003E"/>
<path d="M5.44159 15.8368V38.9C5.44159 38.9552 5.48636 39 5.54159 39H12.4065C12.4617 39 12.5065 38.9552 12.5065 38.9V15.8368C12.5065 15.7816 12.4617 15.7368 12.4065 15.7368H5.54159C5.48636 15.7368 5.44159 15.7816 5.44159 15.8368Z" stroke="#05003E" stroke-width="0.5"/>
<path d="M24.7701 15.7368H17.9052C17.85 15.7368 17.8052 15.7816 17.8052 15.8368V38.9C17.8052 38.9552 17.85 39 17.9052 39H24.7701C24.8254 39 24.8701 38.9552 24.8701 38.9V25.5789C24.8702 22 31.9351 22 31.9351 25.5789V38.9031C31.9351 38.9584 31.9798 39 32.0351 39H38.9C38.9552 39 39 38.9552 39 38.9V22.8947C39.0001 17.5658 32.0387 14.0001 25.0261 18.3236C24.959 18.365 24.8701 18.3182 24.8701 18.2394V15.8368C24.8701 15.7816 24.8254 15.7368 24.7701 15.7368Z" stroke="#05003E" stroke-width="0.5"/>
<path d="M8.97405 5C3.67528 5 3.67532 12.1579 8.97405 12.1579C14.2728 12.1579 14.2728 5 8.97405 5Z" stroke="#05003E" stroke-width="0.5"/>
</svg>
