<svg width="44" height="44" viewBox="0 0 44 44" fill="none" xmlns="http://www.w3.org/2000/svg">
<path fill-rule="evenodd" clip-rule="evenodd" d="M15.3221 3.69172C17.5436 3.5159 19.776 3.84861 21.8497 4.6646C23.9234 5.48058 25.7839 6.75838 27.2899 8.40095C28.482 9.70112 29.4271 11.2028 30.0834 12.8319H32.1081C34.2455 12.8608 36.3184 13.5682 38.0276 14.8519C39.7368 16.1356 40.9939 17.9293 41.6172 19.974C42.2406 22.0186 42.1981 24.2085 41.4958 26.2274C40.7935 28.2463 39.4677 29.9898 37.71 31.2062C36.8774 31.7824 35.7353 31.5745 35.1592 30.7418C34.583 29.9092 34.7909 28.7672 35.6235 28.191C36.7421 27.417 37.5857 26.3075 38.0326 25.0227C38.4796 23.738 38.5066 22.3444 38.1099 21.0433C37.7132 19.7421 36.9133 18.6007 35.8257 17.7838C34.7411 16.9692 33.4263 16.5193 32.0703 16.4986H28.7834C27.9716 16.4986 27.2564 15.9647 27.0257 15.1863C26.5507 13.5839 25.7167 12.1108 24.5872 10.8789C23.4577 9.64695 22.0624 8.6886 20.5071 8.07661C18.9518 7.46463 17.2776 7.21509 15.6114 7.34696C13.9453 7.47882 12.3311 7.98862 10.8915 8.83764C9.45182 9.68666 8.22457 10.8526 7.30293 12.2468C6.38128 13.6411 5.78947 15.227 5.57243 16.8842C5.35539 18.5414 5.51884 20.2263 6.05036 21.8109C6.58188 23.3955 7.4675 24.8381 8.63995 26.0292C9.35024 26.7508 9.34108 27.9116 8.61949 28.6218C7.89789 29.3321 6.73713 29.323 6.02684 28.6014C4.46357 27.0132 3.28275 25.0897 2.57405 22.9769C1.86536 20.8642 1.64743 18.6177 1.93681 16.4081C2.22619 14.1985 3.01528 12.0839 4.24414 10.2249C5.473 8.36587 7.10932 6.81132 9.02884 5.6793C10.9484 4.54727 13.1006 3.86754 15.3221 3.69172Z" fill="#FDD817"/>
<path fill-rule="evenodd" clip-rule="evenodd" d="M22.0002 20.1655C23.0127 20.1655 23.8335 20.9863 23.8335 21.9989V38.4989C23.8335 39.5114 23.0127 40.3322 22.0002 40.3322C20.9877 40.3322 20.1669 39.5114 20.1669 38.4989V21.9989C20.1669 20.9863 20.9877 20.1655 22.0002 20.1655Z" fill="#FDD817"/>
<path fill-rule="evenodd" clip-rule="evenodd" d="M13.3702 29.8695C14.0862 29.1535 15.247 29.1535 15.9629 29.8695L21.9999 35.9065L28.0369 29.8695C28.7529 29.1535 29.9137 29.1535 30.6296 29.8695C31.3456 30.5855 31.3456 31.7463 30.6296 32.4622L23.2963 39.7955C22.5803 40.5115 21.4195 40.5115 20.7036 39.7955L13.3702 32.4622C12.6543 31.7463 12.6543 30.5855 13.3702 29.8695Z" fill="#FDD817"/>
</svg>
