<svg width="50" height="50" viewBox="0 0 50 50" fill="none" xmlns="http://www.w3.org/2000/svg">
<path fill-rule="evenodd" clip-rule="evenodd" d="M6.24996 29.1655C7.40055 29.1655 8.33329 30.0983 8.33329 31.2489V39.5822C8.33329 40.1347 8.55279 40.6646 8.94349 41.0553C9.33419 41.446 9.86409 41.6655 10.4166 41.6655H39.5833C40.1358 41.6655 40.6657 41.446 41.0564 41.0553C41.4471 40.6646 41.6666 40.1347 41.6666 39.5822V31.2489C41.6666 30.0983 42.5994 29.1655 43.75 29.1655C44.9006 29.1655 45.8333 30.0983 45.8333 31.2489V39.5822C45.8333 41.2398 45.1748 42.8295 44.0027 44.0016C42.8306 45.1737 41.2409 45.8322 39.5833 45.8322H10.4166C8.75902 45.8322 7.16931 45.1737 5.99721 44.0016C4.82511 42.8295 4.16663 41.2398 4.16663 39.5822V31.2489C4.16663 30.0983 5.09937 29.1655 6.24996 29.1655Z" fill="#FDD817"/>
<path fill-rule="evenodd" clip-rule="evenodd" d="M13.1103 19.3592C13.9239 18.5456 15.243 18.5456 16.0566 19.3592L25.0001 28.3027L33.9436 19.3592C34.7572 18.5456 36.0763 18.5456 36.8899 19.3592C37.7035 20.1728 37.7035 21.4919 36.8899 22.3055L26.4733 32.7222C25.6597 33.5358 24.3406 33.5358 23.527 32.7222L13.1103 22.3055C12.2967 21.4919 12.2967 20.1728 13.1103 19.3592Z" fill="#FDD817"/>
<path fill-rule="evenodd" clip-rule="evenodd" d="M25 4.16602C26.1506 4.16602 27.0833 5.09876 27.0833 6.24935V31.2494C27.0833 32.3999 26.1506 33.3327 25 33.3327C23.8494 33.3327 22.9166 32.3999 22.9166 31.2494V6.24935C22.9166 5.09876 23.8494 4.16602 25 4.16602Z" fill="#FDD817"/>
</svg>
