<svg width="55" height="55" viewBox="0 0 55 55" fill="none" xmlns="http://www.w3.org/2000/svg">
<path fill-rule="evenodd" clip-rule="evenodd" d="M38.9584 36.6659C38.3506 36.6659 37.7677 36.9073 37.3379 37.3371C36.9081 37.7668 36.6667 38.3497 36.6667 38.9575V48.1242C36.6667 49.3898 35.6407 50.4159 34.375 50.4159C33.1094 50.4159 32.0834 49.3898 32.0834 48.1242V38.9575C32.0834 37.1342 32.8077 35.3855 34.097 34.0962C35.3863 32.8068 37.135 32.0825 38.9584 32.0825H48.125C49.3907 32.0825 50.4167 33.1085 50.4167 34.3742C50.4167 35.6398 49.3907 36.6659 48.125 36.6659H38.9584Z" fill="#FDD817"/>
<path fill-rule="evenodd" clip-rule="evenodd" d="M16.0414 6.875C17.3071 6.875 18.3331 7.90101 18.3331 9.16667V13.3179C18.6842 14.1146 19.2563 14.7973 19.9847 15.2829C20.8114 15.834 21.7947 16.1016 22.7867 16.0453L22.9164 18.3333V16.0417C24.7398 16.0417 26.4885 16.766 27.7778 18.0553C29.0671 19.3446 29.7914 21.0933 29.7914 22.9167C29.7914 23.5245 30.0329 24.1073 30.4626 24.5371C30.8924 24.9669 31.4753 25.2083 32.0831 25.2083C32.6909 25.2083 33.2738 24.9669 33.7035 24.5371C34.1333 24.1073 34.3748 23.5245 34.3748 22.9167C34.3748 21.0933 35.0991 19.3446 36.3884 18.0553C37.6777 16.766 39.4264 16.0417 41.2498 16.0417H48.1248C49.3904 16.0417 50.4164 17.0677 50.4164 18.3333C50.4164 19.599 49.3904 20.625 48.1248 20.625H41.2498C40.642 20.625 40.0591 20.8664 39.6293 21.2962C39.1995 21.726 38.9581 22.3089 38.9581 22.9167C38.9581 24.74 38.2338 26.4887 36.9444 27.778C35.6551 29.0673 33.9065 29.7917 32.0831 29.7917C30.2597 29.7917 28.511 29.0673 27.2217 27.778C25.9324 26.4887 25.2081 24.74 25.2081 22.9167C25.2081 22.3089 24.9666 21.726 24.5369 21.2962C24.1187 20.8781 23.5557 20.6382 22.9658 20.6255C21.0092 20.7193 19.0733 20.1838 17.4424 19.0965C15.7891 17.9943 14.5387 16.3847 13.8795 14.5102C13.7936 14.266 13.7498 14.0089 13.7498 13.75V9.16667C13.7498 7.90101 14.7758 6.875 16.0414 6.875Z" fill="#FDD817"/>
<path fill-rule="evenodd" clip-rule="evenodd" d="M4.58337 25.2072C4.58337 23.9415 5.60939 22.9155 6.87504 22.9155H11.4584C13.2817 22.9155 15.0304 23.6399 16.3197 24.9292C17.609 26.2185 18.3334 27.9672 18.3334 29.7905V32.0822C18.3334 32.69 18.5748 33.2729 19.0046 33.7026C19.4344 34.1324 20.0173 34.3739 20.625 34.3739C22.4484 34.3739 24.1971 35.0982 25.4864 36.3875C26.7757 37.6768 27.5 39.4255 27.5 41.2489V50.4155C27.5 51.6812 26.474 52.7072 25.2084 52.7072C23.9427 52.7072 22.9167 51.6812 22.9167 50.4155V41.2489C22.9167 40.6411 22.6753 40.0582 22.2455 39.6284C21.8157 39.1986 21.2328 38.9572 20.625 38.9572C18.8017 38.9572 17.053 38.2329 15.7637 36.9436C14.4744 35.6542 13.75 33.9056 13.75 32.0822V29.7905C13.75 29.1827 13.5086 28.5998 13.0788 28.1701C12.6491 27.7403 12.0662 27.4989 11.4584 27.4989H6.87504C5.60939 27.4989 4.58337 26.4728 4.58337 25.2072Z" fill="#FDD817"/>
<path fill-rule="evenodd" clip-rule="evenodd" d="M27.5001 6.87435C16.1092 6.87435 6.87508 16.1085 6.87508 27.4993C6.87508 38.8902 16.1092 48.1244 27.5001 48.1244C38.891 48.1244 48.1251 38.8902 48.1251 27.4993C48.1251 16.1085 38.891 6.87435 27.5001 6.87435ZM2.29175 27.4993C2.29175 13.5772 13.5779 2.29102 27.5001 2.29102C41.4223 2.29102 52.7084 13.5772 52.7084 27.4993C52.7084 41.4215 41.4223 52.7077 27.5001 52.7077C13.5779 52.7077 2.29175 41.4215 2.29175 27.4993Z" fill="#FDD817"/>
</svg>
