<svg width="40" height="40" viewBox="0 0 40 40" fill="none" xmlns="http://www.w3.org/2000/svg">
<path d="M6.32191 12.666C5.64445 17.7909 5.67777 21.9489 6.38219 27.1916C6.70786 29.6153 8.56932 31.5504 10.9792 31.9666C17.3984 33.0751 22.5518 33.1495 29.1164 31.9828C31.4793 31.5628 33.2985 29.6624 33.626 27.285C34.3468 22.053 34.3399 17.8618 33.6464 12.5906C33.3133 10.0597 31.3057 8.07708 28.774 7.74979C22.3569 6.9202 17.9597 7.01948 11.3158 7.81467C8.74273 8.12263 6.66151 10.0969 6.32191 12.666Z" stroke="#05003E"/>
<path d="M23.9195 19.1196C24.62 19.4974 24.62 20.5022 23.9196 20.88L18.699 23.6955C18.0327 24.0549 17.2243 23.5723 17.2243 22.8154L17.2243 17.1842C17.2243 16.4273 18.0327 15.9447 18.699 16.3041L23.9195 19.1196Z" fill="#05003E"/>
</svg>
