<svg width="122" height="112" viewBox="0 0 122 112" fill="none" xmlns="http://www.w3.org/2000/svg">
<g filter="url(#filter0_d_181_8684)">
<path d="M85.004 47.3787C87.6323 24.7967 20.9977 35.9739 14.1893 57.3452C31.779 72.4985 91.812 74.0617 85.4104 51.6379C85.5836 50.0867 85.3833 48.5646 85.004 47.3787Z" fill="#809EB3"/>
<path d="M85.0612 51.7427C88.583 66.3377 36.2858 66.254 15.7309 57.5128C37.3097 65.5347 84.4841 65.6297 85.0612 51.7427Z" fill="#777594"/>
<path d="M84.4863 47.103C84.6548 32.6984 33.0471 44.6519 13.7201 57.4389C34.1865 45.0848 82.1363 34.5243 84.4863 47.103Z" fill="#777594"/>
<path d="M84.4428 49.2856C83.9932 48.0086 53.97 54.3241 15.8928 56.4701C58.2923 54.0804 85.2076 51.4583 84.4428 49.2856Z" fill="#777594"/>
<path d="M104.946 46.7857C97.7349 18.6785 49.1753 74.8413 56.9106 84.8086C63.385 94.3977 129.877 66.5548 106.961 49.7528C106.414 48.2413 105.766 47.7093 104.946 46.7857Z" fill="#809EB3"/>
<path d="M106.569 49.4924C114.933 60.2428 77.6246 81.5252 59.4679 82.6177C78.0659 80.5064 111.728 61.3251 106.569 49.4924Z" fill="#777594"/>
<path d="M104.298 45.8529C98.6405 33.7548 66.6512 64.8083 58.0045 83.3778C67.6369 64.7045 97.5777 36.3079 104.298 45.8529Z" fill="#777594"/>
<path d="M105.165 48.0174C104.25 47.0416 83.4617 66.4924 54.5149 85.7443C86.7475 64.307 106.722 49.6776 105.165 48.0174Z" fill="#777594"/>
</g>
<defs>
<filter id="filter0_d_181_8684" x="3.9924" y="30.0995" width="117.481" height="71.2603" filterUnits="userSpaceOnUse" color-interpolation-filters="sRGB">
<feFlood flood-opacity="0" result="BackgroundImageFix"/>
<feColorMatrix in="SourceAlpha" type="matrix" values="0 0 0 0 0 0 0 0 0 0 0 0 0 0 0 0 0 0 127 0" result="hardAlpha"/>
<feOffset dy="4.86391"/>
<feGaussianBlur stdDeviation="4.86391"/>
<feComposite in2="hardAlpha" operator="out"/>
<feColorMatrix type="matrix" values="0 0 0 0 0 0 0 0 0 0 0 0 0 0 0 0 0 0 0.25 0"/>
<feBlend mode="normal" in2="BackgroundImageFix" result="effect1_dropShadow_181_8684"/>
<feBlend mode="normal" in="SourceGraphic" in2="effect1_dropShadow_181_8684" result="shape"/>
</filter>
</defs>
</svg>
