<svg width="273" height="442" viewBox="0 0 273 442" fill="none" xmlns="http://www.w3.org/2000/svg">
<path d="M1.5 2.99951C1.5 2.17108 2.17157 1.49951 3 1.49951H271C271.828 1.49951 272.5 2.17109 272.5 2.99951V440C272.5 440.828 271.828 441.5 271 441.5H3C2.17158 441.5 1.5 440.828 1.5 440V2.99951Z" stroke="#6A8EA8"/>
<path d="M2 206.237L10.1308 199.242L71.8131 153.944L165.178 146.616H181.439L201.065 119.637H235.551L246.206 101.65L250.972 97.8345L272 80.9995V128.963V178.258V196.245L250.972 188.558L228.822 178.258L181.439 184.899L178.916 185.253L130.692 166.268L105.327 173.1L65.0062 180.543L19.0628 239.512L2 245.607V229.753V220.559V206.237Z" fill="#FFE770"/>
<path d="M65.0062 180.543L51.3458 188.558L50.2272 176.726L65.0062 180.543Z" fill="#FDD817"/>
<path d="M67.0945 168.932L71.8131 153.944L105.327 173.1L67.0945 168.932Z" fill="#FDD817"/>
<path d="M260.505 159.939L272 128.963V178.258L217.888 159.939L255.738 157.275L260.505 159.939Z" fill="#FDD817"/>
<path d="M2 220.559L6.48599 223.224L2 229.753V220.559Z" fill="#FACF0E"/>
<path d="M71.8131 153.944L67.0945 168.932L120.621 174L87.3676 178L61.0625 185.5L67.0945 168.932L50.2272 176.726L71.8131 153.944L166.283 144L178.916 185.253L181.439 146.616L201.065 119.637H235.551L246.206 101.65L250.972 97.8345L260.505 159.939L272 128.963V178.258V196.245L250.972 188.558L272 178.258L260.505 159.939L246.206 101.65L228.822 142.952L232.187 125.299L201.065 119.637L178.916 185.253L181.439 184.899L217.888 159.939L228.822 178.258L181.439 184.899L178.916 185.253L125.585 174.5L136.019 159.939L71.8131 153.944Z" fill="#FACF0E"/>
<path d="M2 206.237L10.1308 199.242L71.8131 153.944L165.787 144L181.439 146.616L178.916 185.253L165.787 144L71.8131 153.944L50.2272 176.726L67.0945 168.932L65.0062 180.543H77.9375L19.0628 239.512L51.3458 188.558L65.0062 180.543L50.2272 176.726L10.1308 199.242L6.48599 223.224L2 229.753V220.559V206.237Z" fill="#F2C709"/>
<path d="M235.551 119.637L246.206 101.65L250.972 97.8345L272 80.9995V128.963L260.505 159.939L250.972 97.8345L246.206 101.65L228.822 142.952L232.187 125.299L201.065 119.637H235.551Z" fill="#F2C709"/>
<path d="M217.888 159.939L228.822 178.258L250.972 188.558L217.888 159.939Z" fill="#F2C709"/>
<path d="M205.376 151.245L201.065 120.63L227.834 142.952L205.376 151.245Z" fill="#F2C709"/>
<path d="M6.48596 223.224L10.1308 199.242L71.8131 153.944L136.019 159.939L130.051 168.5L126.577 174.5L105.327 173.1L71.8131 153.944L10.1308 199.242L50.2272 176.726L51.3458 188.558L10.1308 199.242L19.0627 239.512L6.48596 223.224Z" fill="#FFE14B"/>
<path d="M178.916 185.253L201.065 119.637L232.187 125.299L228.822 142.952L246.206 101.65L260.505 159.939L272 178.258L217.888 159.939L255.738 157.275L204.149 152.278L178.916 185.253Z" fill="#FFE14B"/>
<path d="M204.271 152.23L201.234 120.083L228.938 142.498L204.271 152.23Z" fill="#FACF0E"/>
<path d="M271.981 178.269L250.964 188.619L217.927 159.947L271.981 178.269Z" fill="#FBD72B"/>
<path d="M152.556 151.917L121.231 158.215L131.512 166.039L152.556 151.917Z" fill="#FDD817"/>
<path d="M84.9023 0.989596L87.057 2.57189L67.9471 44.6737L53.1048 47.564L27.183 58.4645L35.5606 67.1221L17.5488 83.6654L0.998923 85.4405L0.998921 74.5677L0.998924 53.8798L0.998925 31.4053L0.998921 18.1394L0.998924 4.87351L8.03906 0.989596L15.2079 0.989598L84.9023 0.989596Z" fill="#7BA9E5"/>
<path d="M86.2617 0.939245L87.057 2.57165L51.8712 0.999236L6.82818 0.999234L24.5496 23.6054L0.991684 31.8018L0.940374 5.26181L1.00006 0.999233L6.82818 0.999234L51.8712 0.999236L86.2617 0.939245Z" fill="#2162B4"/>
<path d="M87.057 2.57165L24.5496 23.6054L4.25976 52.3977L0.998416 54.0822L0.99841 31.3859L24.5496 23.6054L6.81637 0.995385L87.057 2.57165Z" fill="#3A77C7"/>
<path d="M87.0571 2.57168L53.1569 47.6789L46.5919 62.2494L29.995 70.1362L1.05476 82.1859L1.05476 65.6178L1.00526 58.575L1.00526 53.8776L4.25988 52.3978L24.5497 23.6054L87.0571 2.57168Z" fill="#5A94DE"/>
<path d="M12.4744 51.6393L43.5687 27.1866L19.5907 50.8881L53.1048 47.564L29.9951 70.1364L19.5907 50.8881L12.4744 51.6393L0.980825 68.2807L0.980814 59.0351L4.25986 52.3979L12.4744 51.6393Z" fill="#7AA9E4"/>
<path d="M43.5687 27.1865L12.4744 51.6392L19.5907 50.888L43.5687 27.1865Z" fill="#3B76C5"/>
<path d="M67.9782 44.6514L53.1699 47.5363L46.5919 62.2495L67.9782 44.6514Z" fill="#3B76C5"/>




<path fill-rule="evenodd" clip-rule="evenodd" d="M128.92 72.1015C119.68 72.9876 112.166 75.3571 104.879 79.6826C103.45 80.5308 103.123 80.9049 103.123 81.6924C103.123 82.6435 103.637 82.9979 106.297 83.8814C108.483 84.6074 108.992 84.8585 109.7 85.5626C110.497 86.3537 110.98 87.4353 110.982 88.435C110.983 88.6728 110.791 89.4887 110.557 90.2481C110.225 91.3246 110.151 91.9772 110.222 93.2096C110.312 94.7502 110.373 94.9099 112.654 99.5023L114.994 104.214L113.933 104.523C109.847 105.712 108.225 110.756 110.916 113.902C111.289 114.338 113.021 115.834 114.765 117.226L117.937 119.758L118.621 121.781C118.998 122.894 119.791 124.812 120.385 126.043C120.978 127.274 121.463 128.312 121.463 128.349C121.463 128.386 117.994 128.444 113.754 128.477L106.046 128.539L104.699 129.177C102.826 130.065 101.659 131.209 100.752 133.043L99.9993 134.566L99.9312 138.769L99.8631 142.971L98.6688 143.574C95.8009 145.023 93.1476 147.231 91.2186 149.775C89.2474 152.374 87.7133 156.076 87.215 159.434C87.0967 160.231 87 163.162 87 165.947V171.009L87.4948 171.504L87.9894 172H136.982H185.975L186.487 171.486L187 170.973L186.916 165.083C186.836 159.499 186.803 159.088 186.297 157.176C184.738 151.285 180.727 146.312 175.343 143.597L174.101 142.971L174.033 138.769L173.965 134.566L173.212 133.043C172.305 131.209 171.138 130.065 169.265 129.177L167.918 128.539L160.209 128.477C155.969 128.444 152.501 128.35 152.501 128.27C152.501 128.19 152.641 127.924 152.813 127.678C153.257 127.044 154.982 122.96 155.536 121.234L156.002 119.778L159.186 117.236C162.885 114.284 163.607 113.509 164.09 111.972C165.135 108.646 163.187 105.308 159.686 104.426C159.17 104.296 158.748 104.134 158.748 104.067C158.748 103.999 159.618 101.543 160.68 98.6082C161.742 95.6737 162.74 92.6006 162.897 91.7794C164.658 82.5693 158.364 73.6455 149.074 72.1791C147.892 71.9925 130.746 71.9266 128.92 72.1015ZM149.337 75.5168C151.137 75.9147 153.704 77.133 154.965 78.187C159.513 81.9911 161.073 87.7646 159.089 93.4476C158.046 96.4336 157.771 97.114 157.755 96.7474C157.722 95.9871 156.665 92.7752 156.032 91.5129C155.111 89.6777 151.003 83.5519 150.585 83.3913C149.762 83.0753 149.244 83.3365 146.735 85.3331C145.304 86.4715 143.715 87.6477 143.206 87.9468C141.489 88.9533 139.392 89.5154 136.612 89.7142C133.825 89.9137 132.886 90.0833 131.049 90.7188C129.368 91.3002 128.358 91.9038 122.285 95.9522C119.339 97.9165 116.816 99.5908 116.678 99.6733C116.502 99.7781 115.971 98.9017 114.9 96.7361C113.458 93.8215 113.377 93.5874 113.455 92.5401C113.5 91.93 113.704 90.8055 113.908 90.0409C114.223 88.8628 114.247 88.4556 114.061 87.369C113.94 86.6641 113.633 85.6559 113.378 85.129C112.747 83.8225 111.211 82.3368 109.845 81.7108C108.54 81.113 108.4 81.2653 111.573 79.8324C116.177 77.7538 121.917 76.1317 126.502 75.6138C127.555 75.495 128.689 75.3659 129.021 75.327C129.354 75.2883 133.734 75.2429 138.756 75.2264C146.439 75.201 148.116 75.247 149.337 75.5168ZM151.353 90.0143C154.173 94.3263 154.717 96.1357 154.717 101.204V104.237H147.151H139.584L139.089 104.732C138.683 105.139 138.594 105.427 138.594 106.346V107.464H136.982H135.37V106.346C135.37 105.427 135.281 105.139 134.875 104.732L134.38 104.237H126.813H119.246V103.058V101.879L124.738 98.2257C127.759 96.2162 130.744 94.3386 131.372 94.0532C132.85 93.3819 134.907 92.9521 136.68 92.9442C140.368 92.9281 144.171 91.4795 147.488 88.8258C148.527 87.9952 149.422 87.3123 149.477 87.3083C149.533 87.3042 150.377 88.5219 151.353 90.0143ZM116.102 109.229C116.176 110.199 116.334 111.748 116.452 112.67C116.571 113.592 116.632 114.382 116.589 114.425C116.416 114.598 113.478 112.067 113.138 111.451C112.212 109.778 113.518 107.523 115.44 107.477C115.958 107.464 115.968 107.491 116.102 109.229ZM122.471 110.214C122.471 113.636 122.662 114.324 123.976 115.639C125.254 116.917 126.004 117.144 128.958 117.144C131.911 117.144 132.837 116.849 134.019 115.533C135.015 114.425 135.37 113.451 135.37 111.827V110.691H136.982H138.594V111.827C138.594 113.577 138.957 114.495 140.099 115.639C141.377 116.917 142.128 117.144 145.081 117.144C148.034 117.144 148.96 116.849 150.142 115.533C151.3 114.245 151.493 113.484 151.493 110.214V107.464H153.127H154.76L154.627 109.329C154.334 113.415 153.463 117.508 152.063 121.379C151.436 123.114 149.821 126.58 149.081 127.783L148.677 128.438H136.982H125.287L124.876 127.783C124.186 126.682 122.563 123.191 121.898 121.379C120.529 117.65 119.631 113.425 119.337 109.329L119.204 107.464H120.837H122.471V110.214ZM132.145 110.196C132.145 112.827 132.127 112.946 131.65 113.422C131.184 113.888 131.025 113.917 128.92 113.917C126.816 113.917 126.656 113.888 126.19 113.422C125.714 112.946 125.696 112.827 125.696 110.196V107.464H128.92H132.145V110.196ZM148.268 110.196C148.268 112.827 148.25 112.946 147.773 113.422C147.308 113.888 147.148 113.917 145.044 113.917C142.939 113.917 142.779 113.888 142.314 113.422C141.837 112.946 141.819 112.827 141.819 110.196V107.464H145.044H148.268V110.196ZM159.707 107.866C161.045 108.682 161.504 110.17 160.814 111.454C160.487 112.064 157.55 114.6 157.375 114.425C157.331 114.382 157.391 113.592 157.508 112.67C157.624 111.748 157.78 110.199 157.854 109.229C157.988 107.491 157.998 107.464 158.52 107.465C158.812 107.465 159.346 107.646 159.707 107.866ZM167.492 131.91C168.599 132.237 170.269 133.908 170.596 135.016C170.779 135.638 170.841 139.973 170.841 152.309V168.773H136.982H103.123V152.309C103.123 139.973 103.185 135.638 103.368 135.016C103.672 133.988 105.359 132.24 106.348 131.928C107.412 131.593 166.359 131.575 167.492 131.91ZM122.615 137.275C119.593 140.317 119.246 140.736 119.246 141.347C119.246 141.958 119.595 142.378 122.669 145.468L126.092 148.908L127.252 147.749L128.411 146.589L125.797 143.967L123.182 141.345L125.749 138.771C127.161 137.355 128.316 136.104 128.316 135.99C128.316 135.725 126.453 133.883 126.185 133.883C126.074 133.883 124.467 135.409 122.615 137.275ZM146.598 134.848C146.076 135.379 145.648 135.899 145.648 136.005C145.648 136.11 146.803 137.355 148.215 138.771L150.782 141.345L148.167 143.967L145.552 146.589L146.712 147.749L147.872 148.908L151.295 145.468C154.369 142.378 154.717 141.958 154.717 141.347C154.717 140.736 154.371 140.317 151.349 137.275C149.497 135.409 147.884 133.883 147.765 133.883C147.645 133.883 147.12 134.317 146.598 134.848ZM135.644 140.442C133.023 143.939 130.925 146.847 130.983 146.904C131.313 147.235 133.252 148.605 133.39 148.605C133.616 148.605 143.111 135.915 142.981 135.786C142.651 135.455 140.712 134.085 140.574 134.085C140.484 134.085 138.266 136.946 135.644 140.442ZM99.8986 157.681V168.773H95.0404H90.1821L90.2754 164.084C90.3558 160.047 90.4308 159.171 90.8162 157.782C91.7632 154.366 93.8102 151.115 96.3859 148.937C97.4894 148.004 99.5592 146.601 99.8482 146.59C99.876 146.589 99.8986 151.58 99.8986 157.681ZM175.701 147.497C178.433 149.266 181.083 152.422 182.277 155.329C183.426 158.127 183.578 159.075 183.683 164.084L183.782 168.773H178.923H174.065V157.681C174.065 151.58 174.118 146.589 174.181 146.589C174.245 146.589 174.929 146.998 175.701 147.497ZM134.968 151.35C132.083 152.399 130.324 155.065 130.596 157.98C130.814 160.317 131.943 162.03 133.994 163.136C135.157 163.764 135.419 163.824 136.982 163.827C138.571 163.83 138.79 163.778 140.005 163.109C144.655 160.55 144.479 153.915 139.703 151.647C138.387 151.022 136.239 150.887 134.968 151.35ZM138.258 154.527C140.344 155.4 140.83 158.066 139.199 159.697C137.866 161.031 136.061 161.041 134.741 159.721C132.249 157.227 134.999 153.165 138.258 154.527Z" fill="url(#paint0_linear_289_9525)"/>

<defs>
<linearGradient id="paint0_linear_289_9525" x1="102.244" y1="71.9995" x2="186.74" y2="179.896" gradientUnits="userSpaceOnUse">
<stop stop-color="#05003E"/>
<stop offset="1" stop-color="#3B009C"/>
</linearGradient>
</defs>
</svg>
