<svg width="273" height="442" viewBox="0 0 273 442" fill="none" xmlns="http://www.w3.org/2000/svg">
<path d="M1.5 2.99951C1.5 2.17108 2.17157 1.49951 3 1.49951H271C271.828 1.49951 272.5 2.17109 272.5 2.99951V440C272.5 440.828 271.828 441.5 271 441.5H3C2.17158 441.5 1.5 440.828 1.5 440V2.99951Z" stroke="#6A8EA8"/>
<path d="M2 206.237L10.1308 199.242L71.8131 153.944L165.178 146.616H181.439L201.065 119.637H235.551L246.206 101.65L250.972 97.8345L272 80.9995V128.963V178.258V196.245L250.972 188.558L228.822 178.258L181.439 184.899L178.916 185.253L130.692 166.268L105.327 173.1L65.0062 180.543L19.0628 239.512L2 245.607V229.753V220.559V206.237Z" fill="#FFE770"/>
<path d="M65.0061 180.543L51.3457 188.558L50.2271 176.726L65.0061 180.543Z" fill="#FDD817"/>
<path d="M67.0944 168.932L71.8129 153.944L105.327 173.1L67.0944 168.932Z" fill="#FDD817"/>
<path d="M260.504 159.939L272 128.963V178.258L217.888 159.939L255.738 157.275L260.504 159.939Z" fill="#FDD817"/>
<path d="M2 220.559L6.48599 223.224L2 229.753V220.559Z" fill="#FACF0E"/>
<path d="M71.8131 153.944L67.0945 168.932L120.621 174L87.3676 178L61.0625 185.5L67.0945 168.932L50.2272 176.726L71.8131 153.944L166.283 144L178.916 185.253L181.439 146.616L201.065 119.637H235.551L246.206 101.65L250.972 97.8345L260.505 159.939L272 128.963V178.258V196.245L250.972 188.558L272 178.258L260.505 159.939L246.206 101.65L228.822 142.952L232.187 125.299L201.065 119.637L178.916 185.253L181.439 184.899L217.888 159.939L228.822 178.258L181.439 184.899L178.916 185.253L125.585 174.5L136.019 159.939L71.8131 153.944Z" fill="#FACF0E"/>
<path d="M2 206.237L10.1308 199.242L71.8131 153.944L165.787 144L181.439 146.616L178.916 185.253L165.787 144L71.8131 153.944L50.2272 176.726L67.0945 168.932L65.0062 180.543H77.9375L19.0628 239.512L51.3458 188.558L65.0062 180.543L50.2272 176.726L10.1308 199.242L6.48599 223.224L2 229.753V220.559V206.237Z" fill="#F2C709"/>
<path d="M235.551 119.637L246.206 101.65L250.972 97.8345L272 80.9995V128.963L260.505 159.939L250.972 97.8345L246.206 101.65L228.822 142.952L232.187 125.299L201.065 119.637H235.551Z" fill="#F2C709"/>
<path d="M217.888 159.939L228.822 178.258L250.972 188.558L217.888 159.939Z" fill="#F2C709"/>
<path d="M205.376 151.245L201.065 120.63L227.834 142.952L205.376 151.245Z" fill="#F2C709"/>
<path d="M6.48608 223.224L10.1309 199.242L71.8132 153.944L136.019 159.939L130.052 168.5L126.577 174.5L105.327 173.1L71.8132 153.944L10.1309 199.242L50.2273 176.726L51.3459 188.558L10.1309 199.242L19.0628 239.512L6.48608 223.224Z" fill="#FFE14B"/>
<path d="M178.916 185.253L201.065 119.637L232.187 125.299L228.822 142.952L246.206 101.65L260.505 159.939L272 178.258L217.888 159.939L255.738 157.275L204.15 152.278L178.916 185.253Z" fill="#FFE14B"/>
<path d="M204.271 152.23L201.234 120.083L228.938 142.498L204.271 152.23Z" fill="#FACF0E"/>
<path d="M271.981 178.269L250.964 188.619L217.927 159.947L271.981 178.269Z" fill="#FBD72B"/>
<path d="M152.556 151.917L121.231 158.215L131.512 166.039L152.556 151.917Z" fill="#FDD817"/>
<path d="M84.9026 0.989596L87.0572 2.57189L67.9473 44.6737L53.105 47.564L27.1832 58.4645L35.5609 67.1221L17.5491 83.6654L0.999168 85.4405L0.999165 74.5677L0.999168 53.8798L0.99917 31.4053L0.999165 18.1394L0.999168 4.87351L8.03931 0.989596L15.2081 0.989598L84.9026 0.989596Z" fill="#7BA9E5"/>
<path d="M86.2619 0.939245L87.0572 2.57165L51.8713 0.999236L6.8283 0.999234L24.5498 23.6054L0.991806 31.8018L0.940496 5.26181L1.00018 0.999233L6.8283 0.999234L51.8713 0.999236L86.2619 0.939245Z" fill="#2162B4"/>
<path d="M87.0571 2.57165L24.5497 23.6054L4.25988 52.3977L0.998538 54.0822L0.998532 31.3859L24.5497 23.6054L6.81649 0.995385L87.0571 2.57165Z" fill="#3A77C7"/>
<path d="M87.0573 2.57168L53.1571 47.6789L46.5922 62.2494L29.9953 70.1362L1.055 82.1859L1.055 65.6178L1.00551 58.575L1.00551 53.8776L4.26013 52.3978L24.5499 23.6054L87.0573 2.57168Z" fill="#5A94DE"/>
<path d="M12.4746 51.6393L43.5688 27.1866L19.5908 50.8881L53.105 47.564L29.9952 70.1364L19.5908 50.8881L12.4746 51.6393L0.980947 68.2807L0.980936 59.0351L4.25998 52.3979L12.4746 51.6393Z" fill="#7AA9E4"/>
<path d="M43.5687 27.1865L12.4744 51.6392L19.5907 50.888L43.5687 27.1865Z" fill="#3B76C5"/>
<path d="M67.9784 44.6514L53.1702 47.5363L46.5921 62.2495L67.9784 44.6514Z" fill="#3B76C5"/>




<path fill-rule="evenodd" clip-rule="evenodd" d="M99.7115 72.2347C95.8967 73.105 92.472 75.2649 90.2367 78.2102C88.9798 79.8661 88.3819 80.9975 87.6589 83.0881C87.0382 84.8827 87.0061 85.1216 87.0003 88.0031C86.995 90.6268 87.0574 91.2332 87.4671 92.5376C89.387 98.652 93.9441 102.747 100.186 103.968C104.063 104.726 108.414 103.849 111.825 101.622L113.289 100.666L117.144 104.531L120.998 108.397L120.08 109.608C118.139 112.171 116.602 115.975 116.154 119.327C115.952 120.835 115.984 123.772 116.22 125.534C116.265 125.867 115.44 126.137 109.305 127.8C105.474 128.838 102.294 129.686 102.238 129.685C102.183 129.684 101.801 129.198 101.389 128.606C100.551 127.397 99.2968 126.48 97.6155 125.847C95.951 125.22 93.3218 125.36 91.6381 126.166C90.1018 126.902 88.553 128.446 87.7902 130.002C87.2474 131.109 87.1961 131.396 87.1961 133.333C87.1961 135.218 87.2571 135.583 87.7447 136.624C88.8057 138.889 90.4535 140.323 92.8213 141.042C97.6075 142.496 102.526 139.084 102.987 133.989L103.094 132.819L109.783 131.025C113.462 130.038 116.623 129.191 116.807 129.143C117.061 129.077 117.338 129.473 117.943 130.764C118.981 132.98 120.164 134.715 121.809 136.438C123.036 137.722 125.369 139.658 125.926 139.854C126.077 139.907 125.54 141.2 124.451 143.403C123.147 146.041 122.665 146.84 122.432 146.75C121.779 146.498 120.101 146.256 119.02 146.259C115.098 146.269 110.876 148.862 109.157 152.315C106.868 156.914 107.655 162.005 111.206 165.556C117.58 171.93 128.352 168.661 130.225 159.784C131.072 155.766 129.577 151.598 126.298 148.839L125.649 148.292L127.292 145.002C128.196 143.193 128.973 141.673 129.018 141.624C129.064 141.575 129.712 141.731 130.459 141.971C136.806 144.005 143.787 142.908 149.182 139.029L150.595 138.013L154.46 141.858L158.325 145.704L157.359 147.184C153.169 153.603 154.156 162.113 159.713 167.478C161.896 169.585 164.046 170.797 167.051 171.613C169.057 172.158 172.943 172.121 174.983 171.538C178.036 170.665 180.029 169.507 182.261 167.306C187.64 162.004 188.551 153.522 184.423 147.198C180.852 141.727 174.288 138.88 168.014 140.081C165.92 140.481 163.509 141.456 161.985 142.518L160.69 143.421L156.811 139.548L152.932 135.674L153.409 135.048C155.834 131.869 157.43 127.909 157.865 123.995L157.994 122.834L158.837 122.83C159.301 122.828 162.993 122.695 167.041 122.535C171.09 122.375 174.406 122.263 174.411 122.286C174.537 122.886 175.635 124.485 176.379 125.154C178.737 127.274 182.403 127.237 184.874 125.067C185.283 124.708 185.907 123.826 186.261 123.107C187.49 120.61 187.028 117.843 185.059 115.909C181.669 112.578 176.237 113.754 174.523 118.19C174.372 118.578 174.231 118.923 174.208 118.955C174.167 119.014 160.203 119.592 158.644 119.599L157.808 119.603L157.666 118.653C157.224 115.707 155.604 111.922 153.735 109.466C152.796 108.234 150.767 106.203 149.235 104.964L148.487 104.358L150.022 101.597C151.515 98.9104 151.571 98.8412 152.072 99.0318C152.356 99.1396 153.275 99.2806 154.115 99.345C159.597 99.7652 164.434 95.2049 164.423 89.6265C164.414 85.1828 161.13 81.1493 156.757 80.2114C155.322 79.9035 152.886 80.0751 151.47 80.5837C146.88 82.2324 144.133 87.3538 145.344 92.0025C145.778 93.6693 146.555 95.087 147.698 96.295L148.697 97.3512L147.263 99.9463C146.474 101.373 145.766 102.601 145.688 102.674C145.611 102.747 144.639 102.503 143.528 102.132C137.077 99.9768 129.892 101.125 124.515 105.171L123.337 106.057L119.472 102.203L115.607 98.3477L116.534 96.9157C119.662 92.0796 120.027 86.1071 117.507 80.9714C115.503 76.8864 112.069 73.9716 107.589 72.5533C105.788 71.9831 101.564 71.8123 99.7115 72.2347ZM106.153 75.5796C111.872 77.0421 115.948 82.2298 115.964 88.0643C115.971 90.5895 114.994 93.5706 113.468 95.6753L112.737 96.6843V95.8692C112.737 94.6942 112.215 92.8596 111.496 91.5106C110.911 90.414 109.099 88.4595 108.194 87.9494C107.854 87.7578 107.83 87.6643 108.041 87.3576C109.41 85.3689 109.804 83.3744 109.223 81.3769C108.765 79.8013 107.487 78.2768 105.976 77.5041C104.931 76.9696 104.585 76.8978 103.06 76.8978C101.023 76.8978 99.8402 77.3668 98.5033 78.7045C97.2204 79.9883 96.7142 81.2373 96.6987 83.1572C96.6878 84.5251 96.77 84.9425 97.2358 85.883C97.5384 86.4938 97.9019 87.1575 98.0434 87.3576C98.2625 87.6674 98.2407 87.756 97.8972 87.9494C96.9923 88.4595 95.1803 90.414 94.596 91.5106C93.8768 92.8596 93.3543 94.6942 93.3543 95.8692V96.6843L92.6232 95.6753C91.6114 94.2791 90.778 92.3989 90.4232 90.7127C88.4811 81.4794 97.0373 73.2481 106.153 75.5796ZM104.324 80.3029C106.398 81.1697 106.904 83.8895 105.291 85.503C103.981 86.8126 102.111 86.8126 100.801 85.503C98.3043 83.0059 101.059 78.9389 104.324 80.3029ZM157.46 83.8816C158.735 84.4848 159.951 85.6938 160.591 86.9936C161.295 88.4256 161.291 90.9802 160.582 92.4453C159.96 93.7327 158.747 94.9454 157.46 95.5681C155.995 96.2767 153.44 96.2805 152.008 95.5762C150.721 94.9434 149.51 93.7325 148.877 92.4453C148.173 91.0133 148.177 88.4587 148.886 86.9936C149.721 85.2668 151.36 83.9206 153.22 83.434C154.302 83.1509 156.378 83.37 157.46 83.8816ZM105.018 90.0455C106.511 90.5275 107.848 91.6403 108.629 93.051C108.998 93.7174 109.301 94.3308 109.303 94.414C109.304 94.4972 106.488 94.5654 103.046 94.5654C99.6033 94.5654 96.7867 94.5242 96.7867 94.4739C96.7867 94.4237 96.8964 94.1283 97.0304 93.8177C98.4111 90.6173 101.814 89.0103 105.018 90.0455ZM110.617 98.5272C107.281 100.945 103.096 101.6 99.0826 100.332C97.5929 99.8611 95.2086 98.5482 94.8811 98.0182C94.7822 97.8581 97.0981 97.7961 103.185 97.7961H111.626L110.617 98.5272ZM139.995 104.542C143.713 105.207 146.774 106.812 149.476 109.515C155.476 115.516 156.423 124.602 151.794 131.759C149.422 135.425 145.625 138.103 141.088 139.307C139.005 139.86 134.784 139.829 132.625 139.245C126.172 137.499 121.494 132.821 119.748 126.367C119.127 124.073 119.127 119.979 119.748 117.685C121.689 110.513 127.326 105.515 134.745 104.389C135.91 104.212 138.585 104.29 139.995 104.542ZM134.387 107.875C132.959 108.404 132.181 108.909 131.192 109.949C130.116 111.082 129.61 111.96 129.185 113.434C128.295 116.517 129.617 120.234 132.245 122.042L133.136 122.656L131.727 123.361C128.411 125.02 126.053 128.584 125.728 132.427C125.61 133.825 125.631 133.929 126.127 134.425L126.651 134.949H136.966H147.282L147.805 134.425C148.302 133.929 148.323 133.825 148.204 132.427C148.069 130.822 147.438 128.863 146.594 127.422C145.734 125.955 143.786 124.151 142.208 123.362L140.796 122.656L141.687 122.042C144.966 119.786 145.987 114.95 143.926 111.434C143.204 110.201 141.596 108.764 140.241 108.14C138.666 107.415 135.958 107.292 134.387 107.875ZM138.457 110.964C139.566 111.292 141.239 112.965 141.566 114.074C142.126 115.967 141.731 117.476 140.305 118.903C138.262 120.946 135.671 120.946 133.628 118.903C131.585 116.86 131.585 114.271 133.628 112.224C135.044 110.805 136.57 110.407 138.457 110.964ZM181.856 117.455C183.946 118.329 184.433 120.998 182.799 122.632C181.463 123.967 179.655 123.977 178.333 122.656C175.837 120.158 178.592 116.091 181.856 117.455ZM140.283 126.028C142.055 126.857 143.275 128.037 144.132 129.75C144.522 130.529 144.841 131.291 144.841 131.442C144.841 131.671 143.487 131.718 136.966 131.718C130.446 131.718 129.092 131.671 129.092 131.442C129.092 130.795 130.57 128.277 131.398 127.514C132.37 126.618 133.914 125.762 135.098 125.463C136.521 125.103 138.849 125.357 140.283 126.028ZM96.4604 128.733C98.1956 129.246 99.8153 131.467 99.8153 133.333C99.8153 135.835 97.4714 138.179 94.9696 138.179C93.6996 138.179 92.6769 137.717 91.6312 136.672C89.5885 134.629 89.5885 132.04 91.6312 129.993C93.0476 128.573 94.5732 128.175 96.4604 128.733ZM173.994 143.423C176.349 144.026 178.213 145.095 179.991 146.864C184.49 151.34 185.046 158.363 181.309 163.519L180.578 164.528V163.713C180.578 162.538 180.056 160.703 179.336 159.354C178.752 158.258 176.94 156.303 176.035 155.793C175.695 155.602 175.671 155.508 175.882 155.201C177.25 153.213 177.645 151.218 177.064 149.221C176.606 147.645 175.328 146.121 173.817 145.348C172.77 144.813 172.428 144.742 170.901 144.744C168.82 144.746 167.717 145.174 166.4 146.492C165.062 147.831 164.555 149.059 164.539 151.001C164.529 152.369 164.611 152.786 165.076 153.727C165.379 154.338 165.743 155.001 165.884 155.201C166.103 155.511 166.081 155.6 165.738 155.793C164.833 156.303 163.021 158.258 162.437 159.354C161.718 160.703 161.195 162.538 161.195 163.713V164.528L160.472 163.519C158.938 161.38 158.188 159.27 158.033 156.655C157.519 148.034 165.654 141.29 173.994 143.423ZM172.164 148.147C174.239 149.013 174.745 151.733 173.131 153.347C170.863 155.615 167.146 153.583 167.742 150.401C168.099 148.5 170.311 147.372 172.164 148.147ZM122.516 150.258C124.337 151.111 125.516 152.27 126.42 154.098C127.132 155.54 127.174 155.731 127.174 157.563C127.174 159.396 127.132 159.586 126.42 161.028C125.511 162.866 124.342 164.011 122.465 164.9C121.246 165.478 120.933 165.539 119.198 165.539C117.464 165.539 117.151 165.478 115.932 164.9C114.054 164.011 112.885 162.866 111.977 161.028C111.265 159.588 111.223 159.394 111.223 157.574C111.223 155.827 111.283 155.518 111.862 154.296C112.673 152.584 113.828 151.33 115.335 150.527C116.926 149.679 117.796 149.487 119.652 149.576C120.864 149.634 121.51 149.787 122.516 150.258ZM172.859 157.889C174.351 158.371 175.688 159.484 176.47 160.895C176.839 161.561 177.142 162.174 177.143 162.258C177.145 162.341 174.329 162.409 170.887 162.409C167.444 162.409 164.627 162.368 164.627 162.318C164.627 162.267 164.737 161.972 164.871 161.662C166.252 158.461 169.654 156.854 172.859 157.889ZM178.457 166.371C176.364 167.888 173.378 168.871 170.86 168.871C168.39 168.871 164.825 167.656 163.214 166.266L162.507 165.656L170.987 165.648L179.466 165.64L178.457 166.371Z" fill="url(#paint0_linear_289_9528)"/>

<defs>
<linearGradient id="paint0_linear_289_9528" x1="83" y1="71.9995" x2="173.504" y2="167.5" gradientUnits="userSpaceOnUse">
<stop stop-color="#05003E"/>
<stop offset="1" stop-color="#3B009C"/>
</linearGradient>
</defs>
</svg>
