<svg width="273" height="442" viewBox="0 0 273 442" fill="none" xmlns="http://www.w3.org/2000/svg">
<path d="M1.5 2.99951C1.5 2.17108 2.17157 1.49951 3 1.49951H271C271.828 1.49951 272.5 2.17109 272.5 2.99951V440C272.5 440.828 271.828 441.5 271 441.5H3C2.17158 441.5 1.5 440.828 1.5 440V2.99951Z" stroke="#6A8EA8"/>
<path d="M2 206.237L10.1308 199.242L71.8131 153.944L165.178 146.616H181.439L201.065 119.637H235.551L246.206 101.65L250.972 97.8345L272 80.9995V128.963V178.258V196.245L250.972 188.558L228.822 178.258L181.439 184.899L178.916 185.253L130.692 166.268L105.327 173.1L65.0062 180.543L19.0628 239.512L2 245.607V229.753V220.559V206.237Z" fill="#FFE770"/>
<path d="M65.0061 180.543L51.3457 188.558L50.2271 176.726L65.0061 180.543Z" fill="#FDD817"/>
<path d="M67.0944 168.932L71.8129 153.944L105.327 173.1L67.0944 168.932Z" fill="#FDD817"/>
<path d="M260.504 159.939L272 128.963V178.258L217.888 159.939L255.738 157.275L260.504 159.939Z" fill="#FDD817"/>
<path d="M2 220.559L6.48599 223.224L2 229.753V220.559Z" fill="#FACF0E"/>
<path d="M71.8131 153.944L67.0945 168.932L120.621 174L87.3676 178L61.0625 185.5L67.0945 168.932L50.2272 176.726L71.8131 153.944L166.283 144L178.916 185.253L181.439 146.616L201.065 119.637H235.551L246.206 101.65L250.972 97.8345L260.505 159.939L272 128.963V178.258V196.245L250.972 188.558L272 178.258L260.505 159.939L246.206 101.65L228.822 142.952L232.187 125.299L201.065 119.637L178.916 185.253L181.439 184.899L217.888 159.939L228.822 178.258L181.439 184.899L178.916 185.253L125.585 174.5L136.019 159.939L71.8131 153.944Z" fill="#FACF0E"/>
<path d="M2 206.237L10.1308 199.242L71.8131 153.944L165.787 144L181.439 146.616L178.916 185.253L165.787 144L71.8131 153.944L50.2272 176.726L67.0945 168.932L65.0062 180.543H77.9375L19.0628 239.512L51.3458 188.558L65.0062 180.543L50.2272 176.726L10.1308 199.242L6.48599 223.224L2 229.753V220.559V206.237Z" fill="#F2C709"/>
<path d="M235.551 119.637L246.206 101.65L250.972 97.8345L272 80.9995V128.963L260.505 159.939L250.972 97.8345L246.206 101.65L228.822 142.952L232.187 125.299L201.065 119.637H235.551Z" fill="#F2C709"/>
<path d="M217.888 159.939L228.822 178.258L250.972 188.558L217.888 159.939Z" fill="#F2C709"/>
<path d="M205.376 151.245L201.065 120.63L227.834 142.952L205.376 151.245Z" fill="#F2C709"/>
<path d="M6.48608 223.224L10.1309 199.242L71.8132 153.944L136.019 159.939L130.052 168.5L126.577 174.5L105.327 173.1L71.8132 153.944L10.1309 199.242L50.2273 176.726L51.3459 188.558L10.1309 199.242L19.0628 239.512L6.48608 223.224Z" fill="#FFE14B"/>
<path d="M178.916 185.253L201.065 119.637L232.187 125.299L228.822 142.952L246.206 101.65L260.505 159.939L272 178.258L217.888 159.939L255.738 157.275L204.15 152.278L178.916 185.253Z" fill="#FFE14B"/>
<path d="M204.271 152.23L201.234 120.083L228.938 142.498L204.271 152.23Z" fill="#FACF0E"/>
<path d="M271.981 178.269L250.964 188.619L217.927 159.947L271.981 178.269Z" fill="#FBD72B"/>
<path d="M152.556 151.917L121.231 158.215L131.512 166.039L152.556 151.917Z" fill="#FDD817"/>
<path d="M84.9026 0.989596L87.0572 2.57189L67.9473 44.6737L53.105 47.564L27.1832 58.4645L35.5609 67.1221L17.5491 83.6654L0.999168 85.4405L0.999165 74.5677L0.999168 53.8798L0.99917 31.4053L0.999165 18.1394L0.999168 4.87351L8.03931 0.989596L15.2081 0.989598L84.9026 0.989596Z" fill="#7BA9E5"/>
<path d="M86.2619 0.939245L87.0572 2.57165L51.8713 0.999236L6.8283 0.999234L24.5498 23.6054L0.991806 31.8018L0.940496 5.26181L1.00018 0.999233L6.8283 0.999234L51.8713 0.999236L86.2619 0.939245Z" fill="#2162B4"/>
<path d="M87.0571 2.57165L24.5497 23.6054L4.25988 52.3977L0.998538 54.0822L0.998532 31.3859L24.5497 23.6054L6.81649 0.995385L87.0571 2.57165Z" fill="#3A77C7"/>
<path d="M87.0573 2.57168L53.1571 47.6789L46.5922 62.2494L29.9953 70.1362L1.055 82.1859L1.055 65.6178L1.00551 58.575L1.00551 53.8776L4.26013 52.3978L24.5499 23.6054L87.0573 2.57168Z" fill="#5A94DE"/>
<path d="M12.4746 51.6393L43.5688 27.1866L19.5908 50.8881L53.105 47.564L29.9952 70.1364L19.5908 50.8881L12.4746 51.6393L0.980947 68.2807L0.980936 59.0351L4.25998 52.3979L12.4746 51.6393Z" fill="#7AA9E4"/>
<path d="M43.5687 27.1865L12.4744 51.6392L19.5907 50.888L43.5687 27.1865Z" fill="#3B76C5"/>
<path d="M67.9784 44.6514L53.1702 47.5363L46.5921 62.2495L67.9784 44.6514Z" fill="#3B76C5"/>



<path fill-rule="evenodd" clip-rule="evenodd" d="M90.246 72.2557C89.2569 72.5676 87.5699 74.315 87.2666 75.3419C86.9111 76.5454 86.9111 138.4 87.2666 139.604C87.5937 140.711 89.2632 142.381 90.3702 142.708C90.9877 142.891 94.903 142.954 105.694 142.954H120.187L121.285 144.488C122.549 146.257 124.981 148.769 126.735 150.119C128.248 151.284 131.22 153.05 132.471 153.528L133.418 153.89L130.829 156.486L128.24 159.081H125.365H122.491V156.333C122.491 154.764 122.386 153.228 122.246 152.754C121.919 151.647 120.249 149.977 119.142 149.65C117.962 149.301 97.9989 149.301 96.8191 149.65C95.7121 149.977 94.0427 151.647 93.7156 152.754C93.3718 153.919 93.3718 167.469 93.7156 168.634C94.0427 169.741 95.7121 171.411 96.8191 171.738C97.9989 172.087 117.962 172.087 119.142 171.738C120.249 171.411 121.919 169.741 122.246 168.634C122.386 168.16 122.491 166.624 122.491 165.055V162.307H126.056H129.62L133.272 158.673L136.925 155.039L138.424 155.377C140.348 155.812 145.923 155.871 148.085 155.48C150.969 154.959 155.034 153.465 157.073 152.177L157.9 151.655L159.974 153.737L162.048 155.82L161.616 156.369C161.379 156.671 161.184 157.201 161.184 157.546C161.183 158.102 161.895 158.882 167.381 164.343C174.137 171.067 174.555 171.386 177.189 171.838C182.77 172.794 187.791 167.771 186.835 162.188C186.382 159.545 186.07 159.137 179.344 152.378C173.889 146.898 173.101 146.179 172.547 146.179C172.202 146.179 171.672 146.374 171.37 146.612L170.819 147.045L168.774 144.999L166.729 142.954H174.804C184.136 142.954 184.19 142.946 185.63 141.343C186.109 140.81 186.609 140.014 186.741 139.574C187.086 138.42 187.086 76.5259 186.741 75.3718C186.609 74.9319 186.109 74.1358 185.63 73.6026C184.042 71.836 188.747 71.9896 136.915 72.0128C104.02 72.0275 90.7509 72.0967 90.246 72.2557ZM183.261 75.7127L183.756 76.2074V107.473V138.738L183.261 139.233L182.767 139.728H175.581C168.815 139.728 168.405 139.708 168.549 139.375C169.155 137.972 169.891 135.634 170.284 133.861C170.885 131.157 170.937 126.093 170.393 123.362C168.734 115.039 163.259 107.739 155.878 104.012L154.675 103.405L158.686 99.3881L162.696 95.372L162.753 97.3905L162.811 99.4091H164.416H166.021V95.0658C166.021 89.2637 166.49 89.7326 160.69 89.7326H156.348V91.3453V92.9581H158.412H160.476L155.876 97.5629L151.276 102.168L149.748 101.804C148.908 101.604 147.353 101.343 146.293 101.225C145.232 101.107 144.309 100.944 144.241 100.865C144.173 100.785 142.459 98.0433 140.432 94.7724C138.405 91.5016 136.568 88.6667 136.348 88.4726C136 88.1654 135.495 88.1198 132.444 88.1198H128.94V85.3713C128.94 82.1018 128.747 81.3412 127.589 80.0536C126.115 78.4126 126.364 78.4433 114.468 78.4433C106.915 78.4433 103.872 78.5098 103.268 78.6884C102.161 79.0156 100.492 80.6856 100.165 81.793C99.8207 82.9574 99.8207 96.5078 100.165 97.6722C100.492 98.7795 102.161 100.45 103.268 100.777C103.872 100.955 106.915 101.022 114.468 101.022C126.364 101.022 126.115 101.053 127.589 99.4115C128.747 98.1239 128.94 97.3633 128.94 94.0939V91.3453H131.727H134.514L137.564 96.234C139.959 100.07 140.541 101.136 140.269 101.182C133.304 102.383 128.636 104.646 124.281 108.932L122.696 110.492L121.838 109.54C120.144 107.662 119.915 107.473 119.332 107.476C119.019 107.478 118.65 107.551 118.512 107.638C118.374 107.726 114.226 112.193 109.295 117.564L100.33 127.33L101.485 128.384C102.12 128.963 102.685 129.435 102.741 129.434C102.796 129.432 106.515 125.406 111.004 120.486L119.166 111.542L119.948 112.31L120.731 113.077L120.021 114.256C118.302 117.113 117.153 120.092 116.519 123.331C116.141 125.269 116.027 129.852 116.304 132.017L116.465 133.277H106.58H96.695V111.505V89.7326H95.0828H93.4705V112.591C93.4705 134.795 93.4816 135.464 93.8556 135.926L94.2408 136.402L105.768 136.503L117.296 136.603L117.749 137.813C117.998 138.478 118.27 139.181 118.353 139.375C118.495 139.709 117.777 139.728 104.869 139.728H91.2354L90.7408 139.233L90.246 138.738V107.473V76.2074L90.7408 75.7127L91.2354 75.2177H137.001H182.767L183.261 75.7127ZM125.221 82.1637L125.715 82.6584V89.7326V96.8067L125.221 97.3014L124.726 97.7964H114.43H104.133L103.639 97.3014L103.144 96.8067V89.7326V82.6584L103.639 82.1637L104.133 81.6688H114.43H124.726L125.221 82.1637ZM106.368 86.5071V88.1198H114.43H122.491V86.5071V84.8943H114.43H106.368V86.5071ZM106.368 92.9581V94.5708H114.43H122.491V92.9581V91.3453H114.43H106.368V92.9581ZM148.69 104.826C157.034 106.735 163.795 112.877 166.397 120.911C167.297 123.692 167.533 125.253 167.533 128.439C167.533 130.118 167.414 131.962 167.253 132.773C165.305 142.614 158.187 149.877 148.254 152.162C146.217 152.63 140.72 152.628 138.646 152.157C128.791 149.922 121.587 142.572 119.647 132.773C119.234 130.688 119.289 125.739 119.75 123.6C121.3 116.397 125.917 110.296 132.297 107.021C135.049 105.609 137.334 104.89 140.729 104.372C142.099 104.163 147.018 104.444 148.69 104.826ZM139.988 107.775C132.526 109.031 126.126 114.436 123.676 121.551C122.176 125.908 122.147 130.82 123.595 135.08C125.97 142.065 131.933 147.382 139.117 148.92C141.205 149.367 144.109 149.491 146.143 149.219C155.44 147.977 162.807 140.673 164.194 131.323C164.962 126.145 163.456 120.211 160.311 116.027C159.238 114.599 156.637 112.064 155.306 111.147C150.996 108.181 145.18 106.901 139.988 107.775ZM137.503 115.952L132.265 121.206L130.807 119.631C130.005 118.765 129.347 117.981 129.346 117.889C129.34 117.521 130.9 115.855 132.321 114.711C133.892 113.447 136.144 112.212 137.977 111.612C139.026 111.268 141.534 110.753 142.34 110.717C142.606 110.705 140.969 112.477 137.503 115.952ZM149.845 111.903C151.993 112.734 154.234 114.213 155.952 115.932C162.9 122.882 162.9 133.996 155.952 140.945C149.535 147.365 139.584 147.922 132.428 142.261C130.815 140.985 128.847 138.707 128.111 137.265L127.722 136.503H137.198H146.674V134.89V133.277H136.511H126.349L126.085 132.118C125.698 130.415 125.752 126.022 126.18 124.407C126.615 122.767 127.322 120.98 127.537 120.98C127.626 120.98 128.5 121.89 129.478 123.003C131.25 125.018 131.755 125.362 132.618 125.14C132.867 125.076 136.2 121.887 140.024 118.054C147.957 110.101 146.902 110.762 149.845 111.903ZM166.728 147.592L168.535 149.408L166.472 151.471L164.409 153.535L162.561 151.686L160.714 149.838L162.713 147.817C163.812 146.705 164.759 145.791 164.816 145.785C164.874 145.78 165.734 146.593 166.728 147.592ZM177.753 155.402C183.333 160.994 183.743 161.543 183.751 163.43C183.765 166.473 181.478 168.762 178.43 168.756C176.517 168.752 175.855 168.256 170.255 162.63L165.118 157.469L168.742 153.84C170.735 151.844 172.412 150.211 172.47 150.211C172.527 150.211 174.905 152.547 177.753 155.402ZM118.772 153.125L119.266 153.62V160.694V167.768L118.772 168.263L118.277 168.758H107.981H97.6843L97.1898 168.263L96.695 167.768V160.694V153.62L97.1898 153.125L97.6843 152.63H107.981H118.277L118.772 153.125ZM99.9195 157.468V159.081H107.981H116.042V157.468V155.856H107.981H99.9195V157.468ZM99.9195 163.919V165.532H107.981H116.042V163.919V162.307H107.981H99.9195V163.919Z" fill="url(#paint0_linear_289_9526)"/>

<defs>
<linearGradient id="paint0_linear_289_9526" x1="87" y1="75.9995" x2="176" y2="172" gradientUnits="userSpaceOnUse">
<stop stop-color="#05003E"/>
<stop offset="1" stop-color="#3B009C"/>
</linearGradient>
</defs>
</svg>
