<svg width="273" height="442" viewBox="0 0 273 442" fill="none" xmlns="http://www.w3.org/2000/svg">
<path d="M1.5 2.99951C1.5 2.17108 2.17157 1.49951 3 1.49951H271C271.828 1.49951 272.5 2.17109 272.5 2.99951V440C272.5 440.828 271.828 441.5 271 441.5H3C2.17158 441.5 1.5 440.828 1.5 440V2.99951Z" stroke="#6A8EA8"/>
<path d="M2 206.237L10.1308 199.242L71.8131 153.944L165.178 146.616H181.439L201.065 119.637H235.551L246.206 101.65L250.972 97.8345L272 80.9995V128.963V178.258V196.245L250.972 188.558L228.822 178.258L181.439 184.899L178.916 185.253L130.692 166.268L105.327 173.1L65.0062 180.543L19.0628 239.512L2 245.607V229.753V220.559V206.237Z" fill="#FFE770"/>
<path d="M65.0062 180.543L51.3458 188.558L50.2272 176.726L65.0062 180.543Z" fill="#FDD817"/>
<path d="M67.0945 168.932L71.8131 153.944L105.327 173.1L67.0945 168.932Z" fill="#FDD817"/>
<path d="M260.505 159.939L272 128.963V178.258L217.888 159.939L255.738 157.275L260.505 159.939Z" fill="#FDD817"/>
<path d="M2 220.559L6.48599 223.224L2 229.753V220.559Z" fill="#FACF0E"/>
<path d="M71.8131 153.944L67.0945 168.932L120.621 174L87.3676 178L61.0625 185.5L67.0945 168.932L50.2272 176.726L71.8131 153.944L166.283 144L178.916 185.253L181.439 146.616L201.065 119.637H235.551L246.206 101.65L250.972 97.8345L260.505 159.939L272 128.963V178.258V196.245L250.972 188.558L272 178.258L260.505 159.939L246.206 101.65L228.822 142.952L232.187 125.299L201.065 119.637L178.916 185.253L181.439 184.899L217.888 159.939L228.822 178.258L181.439 184.899L178.916 185.253L125.585 174.5L136.019 159.939L71.8131 153.944Z" fill="#FACF0E"/>
<path d="M2 206.237L10.1308 199.242L71.8131 153.944L165.787 144L181.439 146.616L178.916 185.253L165.787 144L71.8131 153.944L50.2272 176.726L67.0945 168.932L65.0062 180.543H77.9375L19.0628 239.512L51.3458 188.558L65.0062 180.543L50.2272 176.726L10.1308 199.242L6.48599 223.224L2 229.753V220.559V206.237Z" fill="#F2C709"/>
<path d="M235.551 119.637L246.206 101.65L250.972 97.8345L272 80.9995V128.963L260.505 159.939L250.972 97.8345L246.206 101.65L228.822 142.952L232.187 125.299L201.065 119.637H235.551Z" fill="#F2C709"/>
<path d="M217.888 159.939L228.822 178.258L250.972 188.558L217.888 159.939Z" fill="#F2C709"/>
<path d="M205.376 151.245L201.065 120.63L227.834 142.952L205.376 151.245Z" fill="#F2C709"/>
<path d="M6.48596 223.224L10.1308 199.242L71.8131 153.944L136.019 159.939L130.051 168.5L126.577 174.5L105.327 173.1L71.8131 153.944L10.1308 199.242L50.2272 176.726L51.3458 188.558L10.1308 199.242L19.0627 239.512L6.48596 223.224Z" fill="#FFE14B"/>
<path d="M178.916 185.253L201.065 119.637L232.187 125.299L228.822 142.952L246.206 101.65L260.505 159.939L272 178.258L217.888 159.939L255.738 157.275L204.149 152.278L178.916 185.253Z" fill="#FFE14B"/>
<path d="M204.271 152.23L201.234 120.083L228.938 142.498L204.271 152.23Z" fill="#FACF0E"/>
<path d="M271.981 178.269L250.964 188.619L217.927 159.947L271.981 178.269Z" fill="#FBD72B"/>
<path d="M152.556 151.917L121.231 158.215L131.512 166.039L152.556 151.917Z" fill="#FDD817"/>
<path d="M84.9023 0.989596L87.057 2.57189L67.9471 44.6737L53.1048 47.564L27.183 58.4645L35.5606 67.1221L17.5488 83.6654L0.998923 85.4405L0.998921 74.5677L0.998924 53.8798L0.998925 31.4053L0.998921 18.1394L0.998924 4.87351L8.03906 0.989596L15.2079 0.989598L84.9023 0.989596Z" fill="#7BA9E5"/>
<path d="M86.2617 0.939245L87.057 2.57165L51.8712 0.999236L6.82818 0.999234L24.5496 23.6054L0.991684 31.8018L0.940374 5.26181L1.00006 0.999233L6.82818 0.999234L51.8712 0.999236L86.2617 0.939245Z" fill="#2162B4"/>
<path d="M87.057 2.57165L24.5496 23.6054L4.25976 52.3977L0.998416 54.0822L0.99841 31.3859L24.5496 23.6054L6.81637 0.995385L87.057 2.57165Z" fill="#3A77C7"/>
<path d="M87.0571 2.57168L53.1569 47.6789L46.5919 62.2494L29.995 70.1362L1.05476 82.1859L1.05476 65.6178L1.00526 58.575L1.00526 53.8776L4.25988 52.3978L24.5497 23.6054L87.0571 2.57168Z" fill="#5A94DE"/>
<path d="M12.4744 51.6393L43.5687 27.1866L19.5907 50.8881L53.1048 47.564L29.9951 70.1364L19.5907 50.8881L12.4744 51.6393L0.980825 68.2807L0.980814 59.0351L4.25986 52.3979L12.4744 51.6393Z" fill="#7AA9E4"/>
<path d="M43.5687 27.1865L12.4744 51.6392L19.5907 50.888L43.5687 27.1865Z" fill="#3B76C5"/>
<path d="M67.9782 44.6514L53.1699 47.5363L46.5919 62.2495L67.9782 44.6514Z" fill="#3B76C5"/>




<path fill-rule="evenodd" clip-rule="evenodd" d="M100.485 72.3776C100.085 72.7008 99.9921 73.0161 99.8738 74.4442C99.5472 78.3806 99.446 86.446 99.6881 89.2339C100.374 97.1329 102.331 104.572 105.613 111.753C106.275 113.202 106.293 113.293 105.885 113.132C105.644 113.037 101.729 111.364 97.1835 109.413C92.6381 107.463 88.7101 105.867 88.4544 105.867C87.7988 105.867 87 106.731 87 107.441C87 107.893 88.2522 109.689 92.5226 115.363C98.3772 123.143 100.094 125.179 103.144 127.962C104.861 129.529 107.962 131.985 109.127 132.701C109.542 132.956 109.581 133.132 109.581 134.746V136.512H106.85C104.219 136.512 104.101 136.53 103.624 137.007L103.129 137.502V146.557C103.129 156.584 103.243 157.898 104.358 160.69C106.473 165.985 110.754 169.799 116.431 171.447C117.932 171.882 118.13 171.887 136.164 171.948C151.902 172.002 154.627 171.968 156.192 171.698C162.976 170.527 168.406 165.523 170.303 158.694C170.651 157.441 170.746 156.361 170.848 152.474L170.972 147.77L177.669 157.339C181.352 162.602 184.512 166.964 184.692 167.032C185.707 167.422 187 166.672 187 165.693C187 165.167 174.452 134.917 173.468 133.071C172.616 131.472 171.193 129.753 169.757 128.59C167.753 126.965 164.091 125.423 162.235 125.423C161.282 125.423 161.303 125.103 162.302 124.415C166.368 121.618 171.094 121.267 175.508 123.435C177.069 124.201 177.557 124.607 180.973 127.975C184.259 131.215 184.804 131.673 185.367 131.673C186.155 131.673 187 130.899 187 130.176C187 129.479 185.555 125.138 184.877 123.797C182.779 119.648 178.772 115.861 174.584 114.068C169.988 112.101 164.719 111.807 160.112 113.26C158.52 113.763 155.719 115.083 154.393 115.956L153.742 116.385L154.668 114.705C159.069 106.722 165.931 96.2796 168.36 93.8718C170.144 92.1036 172.615 91.2018 175.104 91.4107C176.956 91.5657 177.995 92.0117 181.705 94.2423C183.626 95.3972 185.161 96.1895 185.477 96.1895C186.137 96.1895 187 95.3629 187 94.7309C187 94.1831 185.887 91.4782 184.826 89.4448C183.893 87.6589 181.181 84.8657 179.349 83.8036C178.633 83.3891 177.227 82.7688 176.224 82.4252C174.559 81.8554 174.169 81.7998 171.778 81.7919C168.753 81.7817 167.449 82.0657 164.923 83.2849C162.864 84.279 161.139 85.7155 158.711 88.4583C155.909 91.6242 154.751 93.1159 152.605 96.3256C150.109 100.059 148.134 103.908 145.231 110.706C143.928 113.755 142.858 116.175 142.854 116.084C142.835 115.657 144.176 109.938 144.868 107.493C148.102 96.0807 153.676 84.4621 160.247 75.4335C161.337 73.9355 161.445 73.2367 160.699 72.4909C160.277 72.0692 160.016 71.9966 158.934 71.9996C157.102 72.005 153.909 72.5002 151.856 73.0976C142.84 75.7206 136.688 81.8115 131.994 92.7621C129.995 97.4244 128.183 104.113 127.803 108.236C127.729 109.04 127.59 109.698 127.495 109.698C127.266 109.698 127.286 105.754 127.525 103.851C127.63 103.019 128.55 97.8125 129.571 92.2804C131.274 83.0484 131.402 82.179 131.132 81.6984C130.783 81.0754 130.001 80.7581 129.27 80.9417C128.573 81.1167 125.881 84.1986 124.067 86.898C119.558 93.6067 117.385 101.264 117.712 109.294C117.777 110.902 117.969 113.034 118.138 114.032C118.306 115.03 118.442 116.028 118.439 116.25C118.436 116.472 114.943 106.764 110.676 94.6774C105.219 79.2214 102.793 72.597 102.497 72.3488C101.947 71.8875 101.074 71.9 100.485 72.3776ZM156.153 75.5556C156.153 75.6284 155.442 76.7851 154.572 78.1262C146.562 90.4788 141.041 105.252 138.929 119.98C138.535 122.727 138.084 127.471 137.809 131.774C137.514 136.381 137.49 136.512 136.929 136.512C136.517 136.512 136.185 135.792 133.51 129.102L130.548 121.691L130.549 117.358C130.55 110.496 131.151 105.688 132.667 100.415C134.032 95.6641 136.632 89.9353 139.119 86.1986C142.64 80.9061 148.277 77.0821 154.54 75.7369C156.141 75.3931 156.153 75.3917 156.153 75.5556ZM115.528 118.325C115.451 118.415 111.748 116.021 111.342 115.618C110.773 115.055 107.674 108.616 106.691 105.956C104.194 99.1976 103 93.028 102.813 85.9073L102.709 81.9758L109.144 100.121C112.683 110.101 115.556 118.293 115.528 118.325ZM175.513 85.5792C177.326 86.2097 179.462 87.6292 180.512 88.9012C181.72 90.3637 181.688 90.4032 179.993 89.5373C177.24 88.1302 174.45 87.7933 171.596 88.5232C168.389 89.3435 166.395 90.8494 163.717 94.4758C156.127 104.752 150.356 114.969 143.756 129.813C142.116 133.503 140.756 136.497 140.736 136.467C140.715 136.436 140.829 134.597 140.988 132.379L141.278 128.347L145.675 117.964C148.092 112.253 150.347 106.968 150.685 106.218C154.073 98.7036 161.93 88.4942 165.972 86.3542C168.911 84.7986 172.443 84.5117 175.513 85.5792ZM125.732 95.3149C125.061 98.9563 124.419 102.704 124.305 103.644C123.836 107.499 124.197 112.15 125.298 116.419C125.665 117.843 127.204 121.997 129.351 127.361C131.254 132.117 132.856 136.122 132.911 136.26C132.981 136.437 132.764 136.512 132.183 136.512C131.727 136.512 131.355 136.439 131.355 136.35C131.355 136.261 130.817 135.278 130.159 134.165C128.75 131.782 126.508 128.724 124.497 126.442L123.058 124.809L122.061 118.413C121.418 114.289 121.02 111.013 120.94 109.194C120.703 103.83 121.643 98.8436 123.827 93.8712C124.622 92.0611 126.697 88.4403 126.851 88.5944C126.906 88.6494 126.402 91.6736 125.732 95.3149ZM100.218 114.202C108.968 117.976 110.971 119.032 114.792 121.889C116.802 123.391 120.947 127.028 120.807 127.168C120.763 127.211 120.08 127.135 119.287 127C116.657 126.549 114.08 127.321 112.011 129.181L110.992 130.098L109.933 129.341C106.855 127.141 103.425 124 101.194 121.341C99.1744 118.934 93.601 111.512 93.8131 111.512C93.9052 111.512 96.7875 112.723 100.218 114.202ZM169.355 115.852C172.916 116.473 176.104 118.156 178.772 120.824C180.452 122.505 180.914 123.322 179.49 122.096C178.436 121.188 175.456 119.723 173.694 119.246C171.687 118.703 167.622 118.747 165.569 119.333C161.728 120.431 158.443 122.812 156.409 125.975C155.991 126.624 154.515 129.259 153.129 131.828L150.609 136.501L147.534 136.506C145.843 136.509 144.46 136.438 144.46 136.348C144.46 136.085 150.08 123.58 150.337 123.27C150.834 122.67 155.932 118.825 157.398 117.943C160.82 115.885 165.177 115.123 169.355 115.852ZM164.194 129.114C166.705 129.994 168.767 131.61 170.183 133.811C170.729 134.659 177.927 151.534 177.927 151.965C177.927 152.038 175.713 148.925 173.006 145.047C170.3 141.169 167.544 137.447 166.883 136.775C164.655 134.513 162.03 133.024 158.873 132.236C157.876 131.986 157.022 131.757 156.974 131.726C156.8 131.611 158.482 128.659 158.774 128.566C159.617 128.297 162.77 128.616 164.194 129.114ZM119.587 130.36C120.141 130.524 120.94 130.957 121.362 131.322L122.13 131.986L121.195 134.132C120.016 136.841 118.643 140.945 117.869 144.073C117.217 146.711 116.435 151.1 116.435 152.129C116.435 152.484 116.369 152.842 116.289 152.922C115.974 153.237 114.242 146.769 113.617 142.944C113.135 139.998 112.68 134.219 112.871 133.462C112.944 133.17 113.417 132.472 113.922 131.91C115.414 130.25 117.395 129.708 119.587 130.36ZM126.621 134.577C127.229 135.509 127.726 136.326 127.726 136.392C127.726 136.458 126.822 136.512 125.717 136.512H123.709L124.409 134.877C125.164 133.111 125.281 132.883 125.424 132.883C125.475 132.883 126.014 133.646 126.621 134.577ZM158.069 135.338C158.623 135.461 159.53 135.769 160.085 136.021L161.093 136.479L157.716 136.496C155.858 136.505 154.339 136.444 154.34 136.361C154.34 136.278 154.526 135.905 154.753 135.533C155.15 134.881 155.2 134.861 156.113 134.985C156.634 135.055 157.514 135.214 158.069 135.338ZM110.167 141.704C110.695 145.816 112.035 151.196 113.527 155.196C114.707 158.357 116.2 161.583 116.66 161.966C117.27 162.473 118.175 162.412 118.763 161.824C119.23 161.357 119.258 161.199 119.26 159.051C119.265 153.303 120.332 146.403 122.005 141.3L122.517 139.738L143.922 139.739L165.327 139.741L166.501 141.401L167.676 143.062L167.601 150.019C167.525 156.93 167.521 156.986 166.985 158.589C166.208 160.913 165.149 162.598 163.311 164.436C161.481 166.266 159.803 167.324 157.464 168.12L155.851 168.669H137H118.149L116.536 168.12C114.209 167.328 112.533 166.271 110.69 164.435C108.855 162.606 107.799 160.928 107.012 158.589L106.469 156.976L106.398 148.357L106.328 139.738H108.121H109.914L110.167 141.704Z" fill="url(#paint0_linear_289_9527)"/>

<defs>
<linearGradient id="paint0_linear_289_9527" x1="101" y1="71.9995" x2="166" y2="172" gradientUnits="userSpaceOnUse">
<stop stop-color="#05003E"/>
<stop offset="1" stop-color="#3B009C"/>
</linearGradient>
</defs>
</svg>
