<svg width="1743" height="1000" viewBox="0 0 1743 1000" fill="none" xmlns="http://www.w3.org/2000/svg">
<path d="M0 825.198L52.4891 794.142L450.682 593.018L1053.4 560.484H1158.38L1285.08 440.697H1507.7L1576.48 360.839L1607.25 343.897L1743 269.151V482.105V700.974V780.832L1607.25 746.704L1464.26 700.974L1158.38 730.46L1142.09 732.03L830.776 647.736L667.034 678.071L406.74 711.117L110.15 972.936L0 1000V929.607V888.788V825.198Z" fill="#FFE770"/>
<path d="M406.74 711.116L318.554 746.704L311.333 694.17L406.74 711.116Z" fill="#FDD817"/>
<path d="M420.221 659.567L450.682 593.018L667.034 678.071L420.221 659.567Z" fill="#FDD817"/>
<path d="M1668.79 619.638L1743 482.105V700.974L1393.68 619.638L1638.02 607.807L1668.79 619.638Z" fill="#FDD817"/>
<path d="M0 888.788L28.9595 900.619L0 929.607V888.788Z" fill="#FACF0E"/>
<path d="M450.682 593.018L420.221 659.567L667.034 678.071L406.74 711.116L420.221 659.567L311.333 694.17L450.682 593.018L1053.4 560.484L1142.09 732.03L1158.38 560.484L1285.08 440.697H1507.7L1576.48 360.839L1607.25 343.897L1668.79 619.638L1743 482.105V700.974V780.832L1607.25 746.704L1743 700.974L1668.79 619.638L1576.48 360.839L1464.26 544.216L1485.98 465.837L1285.08 440.697L1142.09 732.03L1158.38 730.46L1393.68 619.638L1464.26 700.974L1158.38 730.46L1142.09 732.03L830.776 647.736L865.165 619.638L450.682 593.018Z" fill="#FACF0E"/>
<path d="M0 825.198L52.4891 794.142L450.682 593.018L1053.4 560.484H1158.38L1142.09 732.03L1053.4 560.484L450.682 593.018L311.333 694.17L420.221 659.567L406.74 711.117L110.15 972.936L318.554 746.704L406.74 711.117L311.333 694.17L52.4891 794.142L28.9595 900.619L0 929.607V888.788V825.198Z" fill="#F2C709"/>
<path d="M1507.7 440.697L1576.48 360.839L1607.25 343.897L1743 269.151V482.105L1668.79 619.638L1607.25 343.897L1576.48 360.839L1464.26 544.216L1485.98 465.837L1285.08 440.697H1507.7Z" fill="#F2C709"/>
<path d="M1393.68 619.638L1464.26 700.974L1607.25 746.704L1393.68 619.638Z" fill="#F2C709"/>
<path d="M1312.91 581.038L1285.08 445.106L1457.88 544.216L1312.91 581.038Z" fill="#F2C709"/>
<path d="M28.9591 900.619L52.4887 794.142L450.682 593.018L865.165 619.638L830.775 647.736L667.034 678.071L450.682 593.018L52.4887 794.142L311.333 694.17L318.554 746.704L52.4887 794.142L110.149 972.936L28.9591 900.619Z" fill="#FFE14B"/>
<path d="M1142.09 732.03L1285.08 440.697L1485.98 465.837L1464.26 544.216L1576.48 360.839L1668.79 619.638L1743 700.974L1393.68 619.638L1638.02 607.807L1304.99 585.624L1142.09 732.03Z" fill="#FFE14B"/>
<path d="M1305.77 585.408L1286.17 442.679L1465.01 542.201L1305.77 585.408Z" fill="#FACF0E"/>
<path d="M1742.88 701.022L1607.2 746.976L1393.93 619.674L1742.88 701.022Z" fill="#FBD72B"/>
<path d="M971.921 584.02L769.7 611.981L836.07 646.721L971.921 584.02Z" fill="#FDD817"/>
<path d="M0 600.413H85.0686L318.554 524.991L626.249 493.936L948.424 524.991L1104.08 418.514L1304.99 208.518L1368.34 193.729L1522.18 125.702L1652.5 10.3519H1683.27L1743 0V128.66V224.785V269.15L1607.25 343.897L1576.48 360.839L1507.7 440.697H1285.08L1158.38 560.484H1053.4L450.682 593.018L52.4891 794.142L0 825.198V754.213V700.974V659.567V647.736V600.413Z" fill="#7BA9E5"/>
<path d="M103.168 717.242L450.682 593.018L948.424 524.991L1053.4 560.484L450.682 593.018L52.4894 794.142L103.168 717.242Z" fill="#0E5198"/>
<path d="M1142.09 473.232L1158.38 560.484L1285.08 440.697L1234.4 374.149L1142.09 473.232Z" fill="#0E5198"/>
<path d="M1607.25 343.897L1743 269.151V224.785L1607.25 238.095V343.897Z" fill="#0E5198"/>
<path d="M103.168 717.242L0 700.974V754.213L52.4891 794.142L103.168 717.242Z" fill="#2162B4"/>
<path d="M1285.08 440.697L1234.4 374.149L1576.48 360.839L1498.65 278.024L1607.25 238.095L1697.75 106.477L1743 128.66V224.785L1607.25 238.095V343.897L1576.48 360.839L1507.7 440.697H1285.08Z" fill="#2162B4"/>
<path d="M103.168 717.242L0 700.974V659.567L318.554 524.991L450.682 593.018L103.168 717.242Z" fill="#3A77C7"/>
<path d="M0 754.213L52.4891 794.142L0 825.198V754.213Z" fill="#3A77C7"/>
<path d="M1053.4 560.484L948.424 524.991L1104.08 418.514L1234.4 374.149L1498.65 278.024L1578.15 162.929L1697.75 106.477L1683.27 10.3519L1743 0V128.66L1697.75 106.477L1607.25 238.095L1498.65 278.024L1576.48 360.839L1234.4 374.149L1142.09 473.232L1158.38 560.484H1053.4Z" fill="#3A77C7"/>
<path d="M85.0686 600.413L0 647.736V600.413H85.0686Z" fill="#5A94DE"/>
<path d="M0 754.213L52.4891 794.142L450.682 593.018L626.249 493.936L948.423 524.991L450.682 593.018L52.4891 794.142L0 825.198V754.213Z" fill="#5A94DE"/>
<path d="M1234.4 374.149L1368.34 193.729L1522.18 125.702L1652.5 10.3519H1683.27L1697.75 106.477L1578.15 162.929L1498.65 278.024L1234.4 374.149Z" fill="#5A94DE"/>
<path d="M1542.85 167.901L1652.5 10.3519L1578.15 162.929L1542.85 167.901L1415.4 269.15L1512.29 172.568L1368.34 193.729L1522.18 125.702L1512.29 172.568L1542.85 167.901Z" fill="#7AA9E4"/>
<path d="M1415.4 269.151L1542.85 167.901L1512.29 172.568L1415.4 269.151Z" fill="#3B76C5"/>
</svg>
