<svg width="439" height="765" viewBox="0 0 439 765" fill="none" xmlns="http://www.w3.org/2000/svg">
<path fill-rule="evenodd" clip-rule="evenodd" d="M268.833 225.499C268.833 224.487 269.654 223.666 270.667 223.666H281.667C284.098 223.666 286.429 224.632 288.148 226.351C289.867 228.07 290.833 230.402 290.833 232.833V258.499C290.833 259.512 290.012 260.333 289 260.333C287.987 260.333 287.167 259.512 287.167 258.499C287.167 257.527 286.78 256.594 286.093 255.907C285.405 255.219 284.472 254.833 283.5 254.833H270.667C269.654 254.833 268.833 254.012 268.833 252.999V225.499ZM287.167 252.148V232.833C287.167 231.374 286.587 229.975 285.556 228.944C284.524 227.912 283.125 227.333 281.667 227.333H272.5V251.166H283.5C284.798 251.166 286.061 251.51 287.167 252.148Z" fill="#FDD817"/>
<path fill-rule="evenodd" clip-rule="evenodd" d="M289.852 226.351C291.571 224.632 293.902 223.666 296.334 223.666H307.334C308.346 223.666 309.167 224.487 309.167 225.499V252.999C309.167 254.012 308.346 254.833 307.334 254.833H294.5C293.528 254.833 292.595 255.219 291.907 255.907C291.22 256.594 290.834 257.527 290.834 258.499C290.834 259.512 290.013 260.333 289 260.333C287.988 260.333 287.167 259.512 287.167 258.499V232.833C287.167 230.402 288.133 228.07 289.852 226.351ZM290.834 252.148C291.939 251.51 293.202 251.166 294.5 251.166H305.5V227.333H296.334C294.875 227.333 293.476 227.912 292.444 228.944C291.413 229.975 290.834 231.374 290.834 232.833V252.148Z" fill="#FDD817"/>
<path fill-rule="evenodd" clip-rule="evenodd" d="M363.417 620.333C363.417 619.182 364.35 618.25 365.5 618.25H373.834C374.984 618.25 375.917 619.182 375.917 620.333V632.833C375.917 633.983 374.984 634.916 373.834 634.916H365.5C364.35 634.916 363.417 633.983 363.417 632.833V620.333ZM367.584 622.416V630.75H371.75V622.416H367.584Z" fill="#FDD817"/>
<path fill-rule="evenodd" clip-rule="evenodd" d="M380.083 641.166C380.083 640.015 381.016 639.083 382.166 639.083H390.5C391.65 639.083 392.583 640.015 392.583 641.166V653.666C392.583 654.816 391.65 655.749 390.5 655.749H382.166C381.016 655.749 380.083 654.816 380.083 653.666V641.166ZM384.25 643.249V651.583H388.416V643.249H384.25Z" fill="#FDD817"/>
<path fill-rule="evenodd" clip-rule="evenodd" d="M380.083 620.333C380.083 619.182 381.016 618.25 382.166 618.25H386.333C387.484 618.25 388.416 619.182 388.416 620.333V630.75H390.5C391.65 630.75 392.583 631.682 392.583 632.833C392.583 633.983 391.65 634.916 390.5 634.916H382.166C381.016 634.916 380.083 633.983 380.083 632.833C380.083 631.682 381.016 630.75 382.166 630.75H384.25V622.416H382.166C381.016 622.416 380.083 621.483 380.083 620.333Z" fill="#FDD817"/>
<path fill-rule="evenodd" clip-rule="evenodd" d="M363.417 641.166C363.417 640.015 364.35 639.083 365.5 639.083H369.667C370.817 639.083 371.75 640.015 371.75 641.166V651.583H373.834C374.984 651.583 375.917 652.515 375.917 653.666C375.917 654.816 374.984 655.749 373.834 655.749H365.5C364.35 655.749 363.417 654.816 363.417 653.666C363.417 652.515 364.35 651.583 365.5 651.583H367.584V643.249H365.5C364.35 643.249 363.417 642.316 363.417 641.166Z" fill="#FDD817"/>
<path fill-rule="evenodd" clip-rule="evenodd" d="M231 535C231 533.895 231.895 533 233 533H253C254.105 533 255 533.895 255 535C255 536.104 254.105 537 253 537H233C231.895 537 231 536.104 231 535Z" fill="#FDD817"/>
<path fill-rule="evenodd" clip-rule="evenodd" d="M227 501C225.895 501 225 501.895 225 503V523C225 524.104 225.895 525 227 525H259C260.104 525 261 524.104 261 523V503C261 501.895 260.104 501 259 501H227ZM221 503C221 499.686 223.686 497 227 497H259C262.314 497 265 499.686 265 503V523C265 526.313 262.314 529 259 529H227C223.686 529 221 526.313 221 523V503Z" fill="#FDD817"/>
<path fill-rule="evenodd" clip-rule="evenodd" d="M351 535.64C347.27 535.64 343.689 537.103 341.025 539.714C340.4 540.326 339.398 540.316 338.786 539.691C338.174 539.067 338.184 538.064 338.808 537.452C342.064 534.261 346.441 532.474 351 532.474C355.559 532.474 359.936 534.261 363.192 537.452C363.816 538.064 363.826 539.067 363.214 539.691C362.602 540.316 361.599 540.326 360.975 539.714C358.311 537.103 354.73 535.64 351 535.64Z" fill="#FDD817"/>
<path fill-rule="evenodd" clip-rule="evenodd" d="M351 543.445C349.342 543.445 347.75 544.095 346.567 545.255C345.942 545.868 344.94 545.858 344.327 545.233C343.715 544.609 343.725 543.606 344.35 542.994C346.126 541.253 348.513 540.278 351 540.278C353.487 540.278 355.874 541.253 357.65 542.994C358.274 543.606 358.284 544.609 357.672 545.233C357.06 545.858 356.058 545.868 355.433 545.255C354.249 544.095 352.658 543.445 351 543.445Z" fill="#FDD817"/>
<path fill-rule="evenodd" clip-rule="evenodd" d="M351 527.5C345.548 527.5 340.286 529.51 336.222 533.145C335.571 533.728 334.57 533.672 333.987 533.02C333.404 532.368 333.46 531.367 334.111 530.784C338.756 526.63 344.769 524.333 351 524.333C357.232 524.333 363.244 526.63 367.889 530.784C368.541 531.367 368.597 532.368 368.014 533.02C367.431 533.672 366.43 533.728 365.778 533.145C361.714 529.51 356.453 527.5 351 527.5Z" fill="#FDD817"/>
<path fill-rule="evenodd" clip-rule="evenodd" d="M349.417 549.667C349.417 548.792 350.126 548.083 351 548.083H351.016C351.89 548.083 352.599 548.792 352.599 549.667C352.599 550.541 351.89 551.25 351.016 551.25H351C350.126 551.25 349.417 550.541 349.417 549.667Z" fill="#FDD817"/>
<path fill-rule="evenodd" clip-rule="evenodd" d="M320.444 369.683C320.803 369.549 321.198 369.549 321.556 369.683L334.223 374.433C334.841 374.665 335.25 375.256 335.25 375.916V386.999C335.25 392.456 331.637 396.816 328.376 399.67C326.712 401.126 325.056 402.264 323.818 403.037C323.198 403.425 322.679 403.724 322.311 403.927C322.127 404.029 321.981 404.107 321.878 404.161C321.827 404.188 321.787 404.209 321.758 404.223L321.724 404.241L321.714 404.246L321.71 404.248C321.71 404.248 321.708 404.249 321 402.833C320.292 404.249 320.292 404.248 320.291 404.248L320.286 404.246L320.276 404.241L320.242 404.223C320.213 404.209 320.173 404.188 320.122 404.161C320.019 404.107 319.873 404.029 319.689 403.927C319.321 403.724 318.802 403.425 318.182 403.037C316.944 402.264 315.288 401.126 313.624 399.67C310.363 396.816 306.75 392.456 306.75 386.999V375.916C306.75 375.256 307.16 374.665 307.778 374.433L320.444 369.683ZM321 402.833L320.291 404.248C320.737 404.471 321.262 404.472 321.708 404.249L321 402.833ZM321 401.032C321.304 400.86 321.692 400.632 322.14 400.352C323.278 399.641 324.788 398.602 326.291 397.287C329.363 394.599 332.083 391.042 332.083 386.999V377.013L321 372.857L309.917 377.013V386.999C309.917 391.042 312.637 394.599 315.709 397.287C317.212 398.602 318.722 399.641 319.86 400.352C320.309 400.632 320.697 400.86 321 401.032Z" fill="#FDD817"/>
<path fill-rule="evenodd" clip-rule="evenodd" d="M326.869 382.713C327.488 383.331 327.488 384.334 326.869 384.952L320.536 391.285C319.918 391.904 318.915 391.904 318.297 391.285L315.13 388.119C314.512 387.5 314.512 386.498 315.13 385.879C315.749 385.261 316.751 385.261 317.369 385.879L319.417 387.927L324.63 382.713C325.249 382.094 326.251 382.094 326.869 382.713Z" fill="#FDD817"/>





<path fill-rule="evenodd" clip-rule="evenodd" d="M373 86.9989C370.238 86.9989 368 89.2374 368 91.9989C368 94.7603 370.238 96.9989 373 96.9989C375.761 96.9989 378 94.7603 378 91.9989C378 89.2374 375.761 86.9989 373 86.9989ZM364.667 91.9989C364.667 87.3965 368.397 83.6655 373 83.6655C377.602 83.6655 381.333 87.3965 381.333 91.9989C381.333 96.6012 377.602 100.332 373 100.332C368.397 100.332 364.667 96.6012 364.667 91.9989Z" fill="#FDD817"/>
<path fill-rule="evenodd" clip-rule="evenodd" d="M365.167 75.4247C368.908 73.6568 373.137 73.2064 377.166 74.1467C381.196 75.0871 384.789 77.3629 387.361 80.6042C389.933 83.8454 391.333 87.8614 391.333 91.9992V93.666C391.333 95.4341 390.631 97.1298 389.381 98.38C388.13 99.6303 386.435 100.333 384.667 100.333C382.898 100.333 381.203 99.6303 379.952 98.38C378.702 97.1298 378 95.4341 378 93.666V85.3326C378 84.4122 378.746 83.666 379.667 83.666C380.587 83.666 381.333 84.4122 381.333 85.3326V93.666C381.333 94.55 381.684 95.3979 382.31 96.023C382.935 96.6481 383.782 96.9993 384.667 96.9993C385.551 96.9993 386.398 96.6481 387.024 96.023C387.649 95.3979 388 94.55 388 93.666V91.9994C388 91.9994 388 91.9994 388 91.9994C388 88.614 386.854 85.3281 384.75 82.6762C382.645 80.0243 379.706 78.1622 376.409 77.3928C373.112 76.6235 369.652 76.992 366.591 78.4384C363.53 79.8849 361.048 82.3243 359.55 85.36C358.051 88.3956 357.623 91.849 358.336 95.1586C359.049 98.4681 360.86 101.439 363.476 103.589C366.091 105.738 369.357 106.94 372.742 106.998C376.127 107.056 379.432 105.968 382.12 103.909C382.851 103.35 383.897 103.488 384.456 104.219C385.016 104.95 384.877 105.996 384.147 106.556C380.861 109.072 376.822 110.402 372.685 110.331C368.547 110.26 364.556 108.791 361.359 106.164C358.163 103.537 355.949 99.9054 355.077 95.8604C354.206 91.8154 354.729 87.5946 356.561 83.8843C358.393 80.1741 361.426 77.1926 365.167 75.4247Z" fill="#FDD817"/>
<g clip-path="url(#clip0_289_9512)">
<path fill-rule="evenodd" clip-rule="evenodd" d="M9.0885 681.776C9.75206 681.269 10.6881 681.331 11.2785 681.922L17.6386 688.282C17.6425 688.286 17.6464 688.29 17.6502 688.293L24.7067 695.35C24.7107 695.354 24.7146 695.358 24.7185 695.362L31.0785 701.722C31.4185 702.062 31.5951 702.532 31.5629 703.012C31.5307 703.492 31.2928 703.934 30.9104 704.226C27.7784 706.613 23.9648 707.936 20.0272 708L20 708C13.5008 708 8.50747 704.29 5.24244 700.807C3.59472 699.049 2.33678 697.298 1.49056 695.988C1.06642 695.331 0.742987 694.781 0.523286 694.39C0.413372 694.195 0.329234 694.039 0.271256 693.93C0.242261 693.875 0.219792 693.831 0.203897 693.801L0.184983 693.764L0.179232 693.752L0.177284 693.748C0.177284 693.748 0.175955 693.746 1.66667 693L0.175955 693.746C-0.0662311 693.261 -0.0579825 692.689 0.198074 692.212C2.38359 688.139 5.41485 684.581 9.0885 681.776ZM3.57095 693.006C3.75275 693.32 3.99321 693.719 4.29069 694.179C5.05906 695.369 6.19694 696.951 7.67423 698.527C10.6566 701.708 14.8252 704.662 19.9864 704.667C22.5622 704.622 25.0728 703.921 27.2857 702.643L23.4162 698.774C23.1517 698.939 22.8751 699.087 22.5886 699.215C21.7708 699.579 20.888 699.775 19.9929 699.791C19.0977 699.806 18.2086 699.642 17.3785 699.306C16.5484 698.971 15.7943 698.472 15.1612 697.839C14.5282 697.206 14.0291 696.452 13.6938 695.622C13.3585 694.792 13.1939 693.903 13.2096 693.007C13.2254 692.112 13.4214 691.229 13.7857 690.412C13.9134 690.125 14.0609 689.849 14.2267 689.584L9.9785 685.336C7.41719 687.503 5.24891 690.097 3.57095 693.006ZM16.7132 692.07C16.6062 692.391 16.5484 692.727 16.5425 693.066C16.5346 693.514 16.6169 693.958 16.7845 694.373C16.9522 694.788 17.2017 695.165 17.5183 695.482C17.8348 695.799 18.2118 696.048 18.6269 696.216C19.0419 696.383 19.4865 696.466 19.9341 696.458C20.2734 696.452 20.6091 696.394 20.9298 696.287L16.7132 692.07Z" fill="#FDD817"/>
<path d="M19.9963 681.333C18.9472 681.33 17.9015 681.45 16.88 681.689C15.9838 681.899 15.0872 681.342 14.8774 680.446C14.6676 679.55 15.2241 678.653 16.1203 678.443C17.3927 678.146 18.6953 677.997 20.0021 678C26.5003 678 31.493 681.711 34.7577 685.193C36.4054 686.951 37.6634 688.702 38.5096 690.012C38.9338 690.669 39.2572 691.219 39.4769 691.61L39.8242 692.254C40.066 692.738 40.0582 693.308 39.8034 693.785C38.737 695.78 37.4652 697.658 36.0088 699.389C35.4161 700.094 34.3647 700.184 33.6604 699.591C32.9561 698.999 32.8656 697.947 33.4582 697.243C34.5733 695.918 35.5678 694.496 36.4301 692.996C36.2482 692.682 36.0075 692.282 35.7095 691.82C34.9411 690.631 33.8032 689.049 32.3259 687.473C29.341 684.289 25.1677 681.333 20.0002 681.333L19.9963 681.333Z" fill="#FDD817"/>
<path fill-rule="evenodd" clip-rule="evenodd" d="M0.488155 673.488C1.13903 672.837 2.1943 672.837 2.84518 673.488L39.5118 710.154C40.1627 710.805 40.1627 711.86 39.5118 712.511C38.861 713.162 37.8057 713.162 37.1548 712.511L0.488155 675.845C-0.162718 675.194 -0.162718 674.139 0.488155 673.488Z" fill="#FDD817"/>
</g>
<path fill-rule="evenodd" clip-rule="evenodd" d="M206.782 6.28866C203.827 4.97216 200.526 4.64602 197.371 5.35888C194.216 6.07173 191.376 7.78539 189.274 10.2443C187.172 12.7031 185.922 15.7755 185.709 19.0031C185.496 22.2308 186.332 25.4407 188.093 28.1543C189.854 30.8678 192.444 32.9396 195.478 34.0605C198.512 35.1815 201.828 35.2916 204.93 34.3745C208.032 33.4574 210.754 31.5621 212.691 28.9714C214.627 26.3807 215.675 23.2333 215.677 19.9987V18.4663C215.677 17.5458 216.423 16.7996 217.343 16.7996C218.264 16.7996 219.01 17.5458 219.01 18.4663V19.9996C219.008 23.9531 217.728 27.8008 215.36 30.9672C212.993 34.1337 209.666 36.4501 205.875 37.571C202.084 38.692 198.032 38.5574 194.323 37.1873C190.615 35.8172 187.448 33.2851 185.297 29.9685C183.145 26.652 182.123 22.7287 182.383 18.7838C182.643 14.8389 184.171 11.0838 186.74 8.07853C189.309 5.07323 192.78 2.97877 196.636 2.1075C200.493 1.23623 204.527 1.63485 208.138 3.2439C208.979 3.61853 209.357 4.60383 208.982 5.44461C208.608 6.2854 207.622 6.66329 206.782 6.28866Z" fill="#FDD817"/>
<path fill-rule="evenodd" clip-rule="evenodd" d="M218.521 5.48708C219.173 6.13763 219.173 7.1929 218.523 7.8441L201.856 24.5274C201.543 24.8403 201.119 25.0161 200.677 25.0162C200.235 25.0163 199.811 24.8407 199.498 24.528L194.498 19.528C193.847 18.8772 193.847 17.8219 194.498 17.171C195.149 16.5201 196.204 16.5201 196.855 17.171L200.676 20.9919L216.164 5.48826C216.815 4.83706 217.87 4.83653 218.521 5.48708Z" fill="#FDD817"/>
<path fill-rule="evenodd" clip-rule="evenodd" d="M124 424.25C115.301 424.25 108.25 431.301 108.25 440C108.25 448.698 115.301 455.75 124 455.75C132.698 455.75 139.75 448.698 139.75 440C139.75 431.301 132.698 424.25 124 424.25ZM104.75 440C104.75 429.368 113.368 420.75 124 420.75C134.631 420.75 143.25 429.368 143.25 440C143.25 450.631 134.631 459.25 124 459.25C113.368 459.25 104.75 450.631 104.75 440Z" fill="#FDD817"/>
<path fill-rule="evenodd" clip-rule="evenodd" d="M122.762 431.763C123.446 431.079 124.554 431.079 125.237 431.763L132.237 438.763C132.921 439.446 132.921 440.554 132.237 441.237L125.237 448.237C124.554 448.921 123.446 448.921 122.762 448.237C122.079 447.554 122.079 446.446 122.762 445.763L128.525 440L122.762 434.237C122.079 433.554 122.079 432.446 122.762 431.763Z" fill="#FDD817"/>
<path fill-rule="evenodd" clip-rule="evenodd" d="M115.25 440C115.25 439.033 116.034 438.25 117 438.25H131C131.967 438.25 132.75 439.033 132.75 440C132.75 440.966 131.967 441.75 131 441.75H117C116.034 441.75 115.25 440.966 115.25 440Z" fill="#FDD817"/>
<defs>
<clipPath id="clip0_289_9512">
<rect width="40" height="40" fill="white" transform="translate(0 673)"/>
</clipPath>
</defs>
</svg>
